/* XPM */
static char *result[] = {
/* columns rows colors chars-per-pixel */
"64 64 79 1 ",
"  c #010000",
". c #0B0302",
"X c #0A0C00",
"o c #07000D",
"O c #0A040B",
"+ c #150000",
"@ c #050011",
"# c #110012",
"$ c #151212",
"% c #191616",
"& c #1A1B19",
"* c #3B3836",
"= c #4F0400",
"- c #520009",
"; c #5F0111",
": c #630009",
"> c #750900",
", c #78090B",
"< c #7E0011",
"1 c #731715",
"2 c #850200",
"3 c #8C0400",
"4 c #87000D",
"5 c #940100",
"6 c #9B0102",
"7 c #970A04",
"8 c #9A0D02",
"9 c #960209",
"0 c #9C010B",
"q c #960A0A",
"w c #9B0A0B",
"e c #96100E",
"r c #9A110F",
"t c #970710",
"y c #9C0313",
"u c #A30202",
"i c #AA0004",
"p c #A90A00",
"a c #A2010B",
"s c #AB020B",
"d c #B00003",
"f c #BF0004",
"g c #A20312",
"h c #B00013",
"j c #C20103",
"k c #CB0400",
"l c #CB0B00",
"z c #CC070F",
"x c #C30D09",
"c c #CE0C0D",
"v c #D60200",
"b c #DA0101",
"n c #D50A02",
"m c #DA0A05",
"M c #D4020C",
"N c #DA030A",
"B c #D60A0E",
"V c #DB0A0A",
"C c #C9110F",
"Z c #D6100A",
"A c #DB100C",
"S c #CF0912",
"D c #DA0411",
"F c #D60C13",
"G c #DB0C11",
"H c #D71111",
"J c #DA1013",
"K c #DC2E2D",
"L c #DC4145",
"P c #DC4B49",
"I c #E59797",
"U c #E59997",
"Y c #E6999A",
"T c #E8999A",
"R c #EAA3A3",
"E c #EDB7BA",
"W c #FFFBF6",
"Q c #FEFBFB",
"! c None",
/* pixels */
"!!!!!!!!!!!!!!!!!!!!!!!!!!!!!!!!!!!!!!!!!!!!!!!!!!!!!!!!!!!!!!!!",
"!!!!!!!!!!!!!!!!!!!!!!!!!!!!!!!!!!!!!!!!!!!!!!!!!!!!!!!!!!!!!!!!",
"!!!!!!!!!!!!!!!!!!!!!!!!!!!!!!!!!!!!!!!!!!!!!!!!!!!!!!!!!!!!!!!!",
"!!!!!!!!!!!!!!!!!!!!!!!!!!!!!!!!!!!!!!!!!!!!!!!!!!!!!!!!!!!!!!!!",
"!!!!!!!!!!!!!!!!!!!!!!!!!!!!!!!!!!!!!!!!!!!!!!!!!!!!!!!!!!!!!!!!",
"!!!!!!!!!!!!!!!!!!!!!!!!!!!!!!!!!!!!!!!!!!!!!!!!!!!!!!!!!!!!!!!!",
"!!!!!!!!!!!!!!!!!!!!!!!!!!!!!!!!!!!!!!!!!!!!!!!!!!!!!!!!!!!!!!!!",
"!!!!!!!!!!!!!!!!!!!!!!!!!!!!!!!!!!!!!!!!!!!!!!!!!!!!!!!!!!!!!!!!",
"!!!!!!!!!!!!           !!!!!!!!!!!!!!!!           !!!!!!!!!!!!!!",
"!!!!!!!!!!!!            !!!!!!!!!!!!!!!           !!!!!!!!!!!!!!",
"!!!!!!!!!!!!         .  !!!!!!!!!!!!!!!#.      .X !!!!!!!!!!!!!!",
"!!!!!!!!!!!*1siisiiiipi   !!!!!!!!!!!  0uuiiissdii  !!!!!!!!!!!!",
"!!!!!!!!!!! 3vbNbbbbbGb   !!!!!!!!!!!  kbbbbbbbbbm  !!!!!!!!!!!!",
"!!!!!!!!!!!O>vmnvbbvbVv  .!!!!!!!!!!!  jbbbbbbbbbV+ !!!!!!!!!!!!",
"!!!!!!!!  =bbvvQQbbbbmmVvN  !!!!!!!  bBvbbbbbbbbbMbv. $!!!!!!!!!",
"!!!!!!!! .-BvnmWWbbbvFbmNk  !!!!!!!  DvNbbbbbbbbnvNv .%!!!!!!!!!",
"!!!!!  .bvbbRQQWQbvbbmbNbnbM  !!!  bbbbbbbbbbbbbbbbbus5   !!!!!!",
"!!!!!   bbbbTQQWQbbbbVbmbbNM  !!!  mbbbbbbbbbbbbbbbb565   !!!!!!",
"!!!!!   bvbbIQQEEbbbbmbNbbbb  !!!  bbbbbbbbbbbbbbbbb505.  !!!!!!",
"!!!!!  .bbbbIQQbvbbbbVbVbMvbnn   bvbbbbbbbbbbbbbbbbb665   !!!!!!",
"!!!!!.  bbNvYQQbbbbbbmbNbbvbbb   bbbbbbbbbbbbbbbbbbb665   !!!!!!",
"!!!!! . bbvNYWQnvbbbbVbmbbbbbNMbDbvbbbbbbbbbbbbbbbbb665   !!!!!!",
"!!!!!   bbbbYWQbbbbbbVbNbbbbbmnbnNbbbbbbbbbbbbbbbbbb665   !!!!!!",
"!!!!!.  bNbvKLPbbbbbbVbVbbbbbvbvDbbbbbbbbbbbbbbbbbbb663   !!!!!!",
"!!!!! . bbbbbbbbbbbbbmbVbbbbmbbbVbNbbbbbbbbbbvbbbNbb505   !!!!!!",
"!!!!!  .bbbbbbbbbbbbbVbNbbbbbbbbVbbbbvbbbbbbbbNvbbvbu65   !!!!!!",
"!!!!!   bbbbbbbbbbvbbVbNbvbbbbbbVbbbbbbbbbbvbb63bNu9065   !!!!!!",
"!!!!! . bbbbbbbbbbbbbmbmbbbbbbbbVbbbbbbbbbbbbN75vbu6605   !!!!!!",
"!!!!!!!!.  bbbbbbbbbbmbNbbbbbbbbmbbbbvbbbbbbvbbb3595  &!!!!!!!!!",
"!!!!!!!!   bbbbbbbbbbmbVbbbbmbbbmbbbbvbbbbbbvbbM5656  %!!!!!!!!!",
"!!!!!!!!   VmNmNmmmNmVmVmmmNVmVmVNmNmNmNVmmmSvcSwq0w  %!!!!!!!!!",
"!!!!!!!!   bbbbbbbbvvVbmbbbbvbbbmbbbbvbbbbbv066u0556   !!!!!!!!!",
"!!!!!!!!   bbbbbbbbbbmbmbbbbmbmbmbmbbbbbbbbvy6066666   !!!!!!!!!",
"!!!!!!!!     NFBmmNmmANVNbmmmVmmVmmNDmVDVnnnw77qgr     !!!!!!!!!",
"!!!!!!!!!!!  NbNmbbbbVbmbbvbbmbbVbbNbbNbbbvv65u60e  !!!!!!!!!!!!",
"!!!!!!!!!!!o NMbbbbbbmbNbbbbvbbvVbbbmbmmvvMM5007ss+ !!!!!!!!!!!!",
"!!!!!!!!!!!!   bmbbbbVbmbbbbbbbbVbbbN65Mb555u00u  !!!!!!!!!!!!!!",
"!!!!!!!!!!!!   vbbbvbmbVbbvbmbbbVbbbby0vb56609ai  !!!!!!!!!!!!!!",
"!!!!!!!!!!!!!!!  mmmmAmVmNbmVNVVAmVVmDBBm7ww7g  !!!!!!!!!!!!!!!!",
"!!!!!!!!!!!!!!!  bbbbVbVbbbbmbmbVbbbmNbbm50u0u  !!!!!!!!!!!!!!!!",
"!!!!!!!!!!!!!!!  mmmbVmVmbvmmbmbVNmmmbbBm5uayp  !!!!!!!!!!!!!!!!",
"!!!!!!!!!!!!!!!!!  mDmbmbbbbbbbbB65bb5966662  !!!!!!!!!!!!!!!!!!",
"!!!!!!!!!!!!!!!!!  NbJbbNbbbbbbbz93Nb6666aa4  !!!!!!!!!!!!!!!!!!",
"!!!!!!!!!!!!!!!!!!!   NVbbbbnbbbBbbvb506u   !!!!!!!!!!!!!!!!!!!!",
"!!!!!!!!!!!!!!!!!!!   bDbbbbNbbbVbbNb6666   !!!!!!!!!!!!!!!!!!!!",
"!!!!!!!!!!!!!!!!!!!     GJNVAnmbBFnxj00:;   !!!!!!!!!!!!!!!!!!!!",
"!!!!!!!!!!!!!!!!!!!!!!  bnNbmvvbcfj0w66  !!!!!!!!!!!!!!!!!!!!!!!",
"!!!!!!!!!!!!!!!!!!!!!!  bMvbVNVvmff5upd  !!!!!!!!!!!!!!!!!!!!!!!",
"!!!!!!!!!!!!!!!!!!!!!!!   vb75NbF556u  !!!!!!!!!!!!!!!!!!!!!!!!!",
"!!!!!!!!!!!!!!!!!!!!!!!  Omb6qNbku06s @!!!!!!!!!!!!!!!!!!!!!!!!!",
"!!!!!!!!!!!!!!!!!!!!!!!!!!  cVVmC7g  !!!!!!!!!!!!!!!!!!!!!!!!!!!",
"!!!!!!!!!!!!!!!!!!!!!!!!!!  mmNbl0a  !!!!!!!!!!!!!!!!!!!!!!!!!!!",
"!!!!!!!!!!!!!!!!!!!!!!!!!! ObbbbMii  !!!!!!!!!!!!!!!!!!!!!!!!!!!",
"!!!!!!!!!!!!!!!!!!!!!!!!!!!!  s5,  !!!!!!!!!!!!!!!!!!!!!!!!!!!!!",
"!!!!!!!!!!!!!!!!!!!!!!!!!!!!  h8<  !!!!!!!!!!!!!!!!!!!!!!!!!!!!!",
"!!!!!!!!!!!!!!!!!!!!!!!!!!!!!!X  !!!!!!!!!!!!!!!!!!!!!!!!!!!!!!!",
"!!!!!!!!!!!!!!!!!!!!!!!!!!!!!!   !!!!!!!!!!!!!!!!!!!!!!!!!!!!!!!",
"!!!!!!!!!!!!!!!!!!!!!!!!!!!!!!   !!!!!!!!!!!!!!!!!!!!!!!!!!!!!!!",
"!!!!!!!!!!!!!!!!!!!!!!!!!!!!!!!!!!!!!!!!!!!!!!!!!!!!!!!!!!!!!!!!",
"!!!!!!!!!!!!!!!!!!!!!!!!!!!!!!!!!!!!!!!!!!!!!!!!!!!!!!!!!!!!!!!!",
"!!!!!!!!!!!!!!!!!!!!!!!!!!!!!!!!!!!!!!!!!!!!!!!!!!!!!!!!!!!!!!!!",
"!!!!!!!!!!!!!!!!!!!!!!!!!!!!!!!!!!!!!!!!!!!!!!!!!!!!!!!!!!!!!!!!",
"!!!!!!!!!!!!!!!!!!!!!!!!!!!!!!!!!!!!!!!!!!!!!!!!!!!!!!!!!!!!!!!!",
"!!!!!!!!!!!!!!!!!!!!!!!!!!!!!!!!!!!!!!!!!!!!!!!!!!!!!!!!!!!!!!!!"
};
