/* XPM */
static char *result[] = {
/* columns rows colors chars-per-pixel */
"64 64 64 1 ",
"  c #010000",
". c #0C0502",
"X c #0A0C00",
"o c #150000",
"O c #110012",
"+ c #151212",
"@ c #1B1717",
"# c #1A1B19",
"$ c #4F0400",
"% c #5F0111",
"& c #630009",
"* c #750900",
"= c #78090B",
"- c #7E0011",
"; c #8C0300",
": c #940201",
"> c #9B0103",
", c #970B05",
"< c #9A0D02",
"1 c #970209",
"2 c #9C020B",
"3 c #960B09",
"4 c #9C0A0B",
"5 c #9A110F",
"6 c #970710",
"7 c #9C0313",
"8 c #A20301",
"9 c #A80000",
"0 c #A3000B",
"q c #AB030B",
"w c #BF0004",
"e c #B00013",
"r c #C30303",
"t c #CB0400",
"y c #CB0B00",
"u c #CC070F",
"i c #C30D09",
"p c #CE0C0D",
"a c #D60201",
"s c #DA0101",
"d c #D50B03",
"f c #DA0A05",
"g c #D5020D",
"h c #DA0409",
"j c #DB0A09",
"k c #C9110F",
"l c #D6100A",
"z c #CF0914",
"x c #DA0412",
"c c #D60C14",
"v c #DC0B10",
"b c #D71111",
"n c #DA1013",
"m c #DC2E2D",
"M c #DC4145",
"N c #DC4B49",
"B c #E59797",
"V c #E59997",
"C c #E6999A",
"Z c #EAA3A3",
"A c #ECB7B9",
"S c #FFFBF6",
"D c #FEFBFB",
"F c None",
/* pixels */
"FFFFFFFFFFFFFFFFFFFFFFFFFFFFFFFFFFFFFFFFFFFFFFFFFFFFFFFFFFFFFFFF",
"FFFFFFFFFFFFFFFFFFFFFFFFFFFFFFFFFFFFFFFFFFFFFFFFFFFFFFFFFFFFFFFF",
"FFFFFFFFFFFFFFFFFFFFFFFFFFFFFFFFFFFFFFFFFFFFFFFFFFFFFFFFFFFFFFFF",
"FFFFFFFFFFFFFFFFFFFFFFFFFFFFFFFFFFFFFFFFFFFFFFFFFFFFFFFFFFFFFFFF",
"FFFFFFFFFFFFFFFFFFFFFFFFFFFFFFFFFFFFFFFFFFFFFFFFFFFFFFFFFFFFFFFF",
"FFFFFFFFFFFFFFFFFFFFFFFFFFFFFFFFFFFFFFFFFFFFFFFFFFFFFFFFFFFFFFFF",
"FFFFFFFFFFFFFFFFFFFFFFFFFFFFFFFFFFFFFFFFFFFFFFFFFFFFFFFFFFFFFFFF",
"FFFFFFFFFFFFFFFFFFFFFFFFFFFFFFFFFFFFFFFFFFFFFFFFFFFFFFFFFFFFFFFF",
"FFFFFFFFFFFFFFFFFFFFFFFFFFFFFFFFFFFFFFFFFFFFFFFFFFFFFFFFFFFFFFFF",
"FFFFFFFFFFFFFFFFFFFFFFFFFFFFFFFFFFFFFFFFFFFFFFFFFFFFFFFFFFFFFFFF",
"FFFFFFFFFFFFFFFFFFFFFFFFFFFFFFFFFFFFFFFFFFFFFFFFFFFFFFFFFFFFFFFF",
"FFFFFFFFFFFFFFFFFFFFFFFFFFFFFFFFFFFFFFFFFFFFFFFFFFFFFFFFFFFFFFFF",
"FFFFFFFFFFFFFFFF         FFFFFFFFFFFF         FFFFFFFFFFFFFFFFFF",
"FFFFFFFFFFFFFFFF          FFFFFFFFFFF         FFFFFFFFFFFFFFFFFF",
"FFFFFFFFFFFFFFFF       .  FFFFFFFFFFFO     .  FFFFFFFFFFFFFFFFFF",
"FFFFFFFFFFFFFFFF;sssssscs  FFFFFFFFF tsssssssf  FFFFFFFFFFFFFFFF",
"FFFFFFFFFFFFFFFF*sfassajs  FFFFFFFFF rsssssssvo FFFFFFFFFFFFFFFF",
"FFFFFFFFFFFFF  $ssaDsssfhjd  FFFFF  sssssssssgsa +FFFFFFFFFFFFFF",
"FFFFFFFFFF   sssZDSDsaajshssg FFF ssssssssssssssq:   FFFFFFFFFFF",
"FFFFFFFFFF.  sssCDDDsssjshshh FFF ssssssssssssss::   FFFFFFFFFFF",
"FFFFFFFFFF   sasBDDAsssjshsss FFF hsssssssssssss>:.  FFFFFFFFFFF",
"FFFFFFFFFF . sssBDDasssjsjsahd   sssssssssssssss>:   FFFFFFFFFFF",
"FFFFFFFFFF . shaCSDasssjshssssgsxhssssssssssssss>:   FFFFFFFFFFF",
"FFFFFFFFFF   sssBDDssashsjssssfsdhssssssssssssss>:   FFFFFFFFFFF",
"FFFFFFFFFF   sshmMNssssjshsssfssxassasssssssssss>:   FFFFFFFFFFF",
"FFFFFFFFFF  .ssssssssssjshsasfssjsssssssssasshss1:.  FFFFFFFFFFF",
"FFFFFFFFFF.  ssssssssssjsfssssssjssasssssss:sh81>:   FFFFFFFFFFF",
"FFFFFFFFFF   sssssssssahshsasfssjsssssssssh:as8>>;   FFFFFFFFFFF",
"FFFFFFFFFFFFF.  sssssssjsfsssfssfsssasssassa;11> #FFFFFFFFFFFFFF",
"FFFFFFFFFFFFF   fhjhhffjhjfhhhfhjshshfhfhcdp4314 @FFFFFFFFFFFFFF",
"FFFFFFFFFFFFF   sssssssjshsssfssjssssssss2>>>:::  FFFFFFFFFFFFFF",
"FFFFFFFFFFFFF   sssssssjsfsssfssffsssssss282>>>>  FFFFFFFFFFFFFF",
"FFFFFFFFFFFFF    jbfjhjjfjjsjfjfjfhhjhjff43275    FFFFFFFFFFFFFF",
"FFFFFFFFFFFFFFFF jgassajshsasjssjssfhfaas>1>qqo FFFFFFFFFFFFFFFF",
"FFFFFFFFFFFFFFFF   ssssjsfsssassjssh:hs;18>>  FFFFFFFFFFFFFFFFFF",
"FFFFFFFFFFFFFFFF   ssssfsjsasjssfsss6as:>460  FFFFFFFFFFFFFFFFFF",
"FFFFFFFFFFFFFFFFFFF fssfsjsssshsjsssxaf:>20 FFFFFFFFFFFFFFFFFFFF",
"FFFFFFFFFFFFFFFFFFF sjhfhfsfjffsjfhhajf:228 FFFFFFFFFFFFFFFFFFFF",
"FFFFFFFFFFFFFFFFFFFF  fffhssssssd1ss:>8>>  FFFFFFFFFFFFFFFFFFFFF",
"FFFFFFFFFFFFFFFFFFFF  hnsshssfssu>hs>>>00  FFFFFFFFFFFFFFFFFFFFF",
"FFFFFFFFFFFFFFFFFFFFFF  sxssshsshshs>>>  FFFFFFFFFFFFFFFFFFFFFFF",
"FFFFFFFFFFFFFFFFFFFFFF    chjbfhlzir2&%  FFFFFFFFFFFFFFFFFFFFFFF",
"FFFFFFFFFFFFFFFFFFFFFFFF  sjssaspw24>  FFFFFFFFFFFFFFFFFFFFFFFFF",
"FFFFFFFFFFFFFFFFFFFFFFFFF  fs>hsz>>9 FFFFFFFFFFFFFFFFFFFFFFFFFFF",
"FFFFFFFFFFFFFFFFFFFFFFFFF  ss8hst81q FFFFFFFFFFFFFFFFFFFFFFFFFFF",
"FFFFFFFFFFFFFFFFFFFFFFFFFFF  pvfk<  FFFFFFFFFFFFFFFFFFFFFFFFFFFF",
"FFFFFFFFFFFFFFFFFFFFFFFFFFF  jhsy>  FFFFFFFFFFFFFFFFFFFFFFFFFFFF",
"FFFFFFFFFFFFFFFFFFFFFFFFFFFFF q:= FFFFFFFFFFFFFFFFFFFFFFFFFFFFFF",
"FFFFFFFFFFFFFFFFFFFFFFFFFFFFF e<- FFFFFFFFFFFFFFFFFFFFFFFFFFFFFF",
"FFFFFFFFFFFFFFFFFFFFFFFFFFFFFFX  FFFFFFFFFFFFFFFFFFFFFFFFFFFFFFF",
"FFFFFFFFFFFFFFFFFFFFFFFFFFFFFF   FFFFFFFFFFFFFFFFFFFFFFFFFFFFFFF",
"FFFFFFFFFFFFFFFFFFFFFFFFFFFFFF   FFFFFFFFFFFFFFFFFFFFFFFFFFFFFFF",
"FFFFFFFFFFFFFFFFFFFFFFFFFFFFFFFFFFFFFFFFFFFFFFFFFFFFFFFFFFFFFFFF",
"FFFFFFFFFFFFFFFFFFFFFFFFFFFFFFFFFFFFFFFFFFFFFFFFFFFFFFFFFFFFFFFF",
"FFFFFFFFFFFFFFFFFFFFFFFFFFFFFFFFFFFFFFFFFFFFFFFFFFFFFFFFFFFFFFFF",
"FFFFFFFFFFFFFFFFFFFFFFFFFFFFFFFFFFFFFFFFFFFFFFFFFFFFFFFFFFFFFFFF",
"FFFFFFFFFFFFFFFFFFFFFFFFFFFFFFFFFFFFFFFFFFFFFFFFFFFFFFFFFFFFFFFF",
"FFFFFFFFFFFFFFFFFFFFFFFFFFFFFFFFFFFFFFFFFFFFFFFFFFFFFFFFFFFFFFFF",
"FFFFFFFFFFFFFFFFFFFFFFFFFFFFFFFFFFFFFFFFFFFFFFFFFFFFFFFFFFFFFFFF",
"FFFFFFFFFFFFFFFFFFFFFFFFFFFFFFFFFFFFFFFFFFFFFFFFFFFFFFFFFFFFFFFF",
"FFFFFFFFFFFFFFFFFFFFFFFFFFFFFFFFFFFFFFFFFFFFFFFFFFFFFFFFFFFFFFFF",
"FFFFFFFFFFFFFFFFFFFFFFFFFFFFFFFFFFFFFFFFFFFFFFFFFFFFFFFFFFFFFFFF",
"FFFFFFFFFFFFFFFFFFFFFFFFFFFFFFFFFFFFFFFFFFFFFFFFFFFFFFFFFFFFFFFF",
"FFFFFFFFFFFFFFFFFFFFFFFFFFFFFFFFFFFFFFFFFFFFFFFFFFFFFFFFFFFFFFFF"
};
