/* XPM */
static char *result[] = {
/* columns rows colors chars-per-pixel */
"64 64 78 1 ",
"  c black",
". c #020000",
"X c #030000",
"o c #000200",
"O c #010200",
"+ c #020003",
"@ c #020103",
"# c #020202",
"$ c #040000",
"% c #050000",
"& c #070000",
"* c #050003",
"= c #010400",
"- c #020500",
"; c #020501",
": c #020600",
"> c #010502",
", c #060500",
"< c #000004",
"1 c #030004",
"2 c #030005",
"3 c #010305",
"4 c #000006",
"5 c #040005",
"6 c #060004",
"7 c #050007",
"8 c #020707",
"9 c #040404",
"0 c gray2",
"q c #070406",
"w c #090000",
"e c #0B0000",
"r c #0C0000",
"t c #0A0500",
"y c #0F0500",
"u c #0B0005",
"i c #080305",
"p c #080206",
"a c #020900",
"s c #030B01",
"d c #040B01",
"f c #040D01",
"g c #000009",
"h c #000208",
"j c #03000A",
"k c #020709",
"l c #01040A",
"z c #01000C",
"x c #01030E",
"c c #05000C",
"v c #07000E",
"b c #0B0009",
"n c #0A000A",
"m c #0D0509",
"M c #09000D",
"N c #0B000C",
"B c #040D0D",
"V c #0E090C",
"C c #180000",
"Z c #1B0505",
"A c #130B01",
"S c #10000F",
"D c #000011",
"F c #020011",
"G c #030012",
"H c #050513",
"J c #010216",
"K c #0C0015",
"L c #110512",
"P c #1C1515",
"I c #181E1F",
"U c #200115",
"Y c #1A1F22",
"T c #2D2D2D",
"R c #7B7B7B",
"E c #888888",
"W c white",
"Q c None",
/* pixels */
"QQQQQQQQQQQQQQQQQQQQQQQQQQQQQQQQQQQQQQQQQQQQQQQQQQQQQQQQQQQQQQQQ",
"QQQQQQQQQQQQQQQQQQQQQQQQQQQQQQQQQQQQQQQQQQQQQQQQQQQQQQQQQQQQQQQQ",
"QQQQQQQQQQQQQQQQQQQQQQQQQQQQQQQQQQQQQQQQQQQQQQQQQQQQQQQQQQQQQQQQ",
"QQQQQQQQQQQQQQQQQQQQQQQQQQQQQQQQQQQQQQQQQQQQQQQQQQQQQQQQQQQQQQQQ",
"QQQQQQQQQQQQQQQQQQQQQQQQQQQQQQQQQQQQQQQQQQQQQQQQQQQQQQQQQQQQQQQQ",
"QQQQQQQQQQQQQQQQQQQQQQQQQQQQQQQQQQQQQQQQQQQQQQQQQQQQQQQQQQQQQQQQ",
"QQQQQQQQQQQQQQQQQQQQQQQQQQQQQQQQQQQQQQQQQQQQQQQQQQQQQQQQQQQQQQQQ",
"QQQQQQQQQQQQQQQQQQQQQQQQQQQQQQQQQQQQQQQQQQQQQQQQQQQQQQQQQQQQQQQQ",
"QQQQQQQQQQQQQQQQQQQQQQQQQQQQQQQQ   QQQQQQQQQQQQQQQQQQQQQQQQQQQQQ",
"QQQQQQQQQQQQQQ     QQQQQQQQQQQQQ  0QQQQQQQQQQQ        QQQQQQQQQQ",
"QQQQQQQQQ        MpQQQQQQQQQQQQQ RRQQQQQQQ         e&  QQQQQQQQQ",
"QQQQQQQQ   .;2=  RRL  QQQQQQQQQXkRRQQQQQQQQb  uqjZ   R  QQQQQQQQ",
"QQQQQQQQ=,  RRRRRRR;6aQ QQQQQQQS<RRRQQQQQQQRRRRRRRRRRR  QQQQQQQQ",
"QQQQQQ GRRRRRRRRRRRRRR  QQQQQ  RRRRRQQQQQQQRRRRRRRRRRR    QQQQQQ",
"QQQQQQ   RRRRRRRRRRRRR     QQ   RRRRQQQQQQQRRRRRRRRRRRRR  QQQQQQ",
"QQQQQQo  RRWWRRRRRRRRRRRR FQQ   RRRRQQQQQQQRRRRRRRRRRRRR    mQQQ",
"QQQQ   RRRRWWRRRRRRRRRRRR   H RRRRRRQQQQQQQRRRRRRRRRRRRRRTT XQQQ",
"QQQQQ  RRRWWWWRRRRRRRRRRRRR   RRRRQQQQQQQQQRRRRRRRRRRRRRRTT  QQQ",
"QQQQQ  RRWWWWWRRRRRRRRRRRRRU  RRQQQQQQQQQQQRRRRRRRRRRRRRRTT= QQQ",
"QQ  KRRRRWWWWWRRRRRRRRRRRRRRRRRRQQQQQQQQQQQRRRRRRRRRRRRRRTT>5QQQ",
"QQQ 0RRRRWWWRRRRRRRRRRRRRRRRRRRRQQQQQQQQQQQRRRRRRRRRRRRRRTT=  QQ",
"QQQ DRRRRRWWRRRRRRRRRRRRRRRRRRRRQQQQQQQQQQQQRRRRRRRRRRRRRTT#  QQ",
"QQQ X RRRRWWWRRRRRRRRRRRRRRRRRRRRQQQQQQRRRRRRRRRRRRRRRRRRTTl  QQ",
"QQQ   RRRRWWWRRRRRRRRRRRRRRRRRRRRQQQQQQRRRRRRRRRRRRRRRRRRTTA  QQ",
"QQQ  1RRRRWWWRRRRRRRRRRRRRRRRRRRRQQQQQQRRRRRRRRRRRRRRRRRRET   QQ",
"QQQQ  RRRRRRRRRRRRRRRRRRRRRRRRRQQQQQQQQRRRRRRRRRRRRRRRRETTT : QQ",
"QQQQ  RRRRRRRRRRRRRRRRRRRRRRRRRQQQQQQQQRRRRRRRRRRRRTTRRTTTTT  QQ",
"QQQQ  RRRRRRRRRRRRRRRRRRRRRRRRRRQQQQQQQRRRRRRRRRRRRTTRRTTT  QQQQ",
"QQQQ #RRRRRRRRRRRRRRRRRRRRRRRRRRQQQQQQQRRRRRRRRRRRRRRTTTTTg QQQQ",
"QQQQ   RRRRRRRRRRRRRRRRRRRRRRRRRQQQQQQQRRRRRRRRRRRRRRTTTTT xQQQQ",
"QQQQQ    RRRRRRRRRRRRRRRRRRRRRRRQQQQQQRRRRRRRRRRRRRRRTTTTT9 QQQQ",
"QQQQQQQw RRRRRRRRRRRRRRRRRRRRRRRQQQQQQRRRRRRRRRRRTTTTTTTTT  QQQQ",
"QQQQQQQ % RRRRRRRRRRRRRRRRRRRRRRQQQQQQRRRRRRRRRRRTTTTTTT  QQQQQQ",
"QQQQQQQ   RRRRRRRRRRRRRRRRRRRRQQQQQQQQRRRRRRRRRRRTTTTTTT3 QQQQQQ",
"QQQQQQQ   RERRRRRRRRRRRRRRRRRRRQQQQQQQRRRRRRRRRRRTTTTTTT- QQQQQQ",
"QQQQQQQQQQ4  RRRRRRRRRRRRRRRRRRQQQQQQQRRRRRRRRRRRETTTTy*QQQQQQQQ",
"QQQQQQQQQQ  J  RRRRRRRRRRRRRRRRQQQQQQQRRRRRTTRRTTTTTTT+rQQQQQQQQ",
"QQQQQQQQQQQQQ  RRRRRRRRRRRRRRRRQQQQQRRRRRRRTTRRTTTTTTT PQQQQQQQQ",
"QQQQQQQQQQQQQ @E  RRRRRRRRRRRRRQQQQQRRRRRRRTTRRTTTTT  QQQQQQQQQQ",
"QQQQQQQQQQQQQQQ   RRRRRRRRRRRRRRQQQQRRRRRRRRRRRTTTTT VQQQQQQQQQQ",
"QQQQQQQQQQQQQQQ     RRRRRRRRRRQQQQQQRRRRRRRRRRRETT  QQQQQQQQQQQQ",
"QQQQQQQQQQQQQQQQQQ  RRRRRRRRRQQQQQQQRRRRRRRTTTTTTTn QQQQQQQQQQQQ",
"QQQQQQQQQQQQQQQQQQ  RQQQQRRRRRQQQQQQQRRTTRRTTTTTTTs QQQQQQQQQQQQ",
"QQQQQQQQQQQQQQQQQQQQQQQQQRRQQQQQQQQQQRRTTRRTTTTTB$QQQQQQQQQQQQQQ",
"QQQQQQQQQQQQQQQQQQQQQQQQQQQQQQQQQQQQQRRRRRRRTTTT8iQQQQQQQQQQQQQQ",
"QQQQQQQQQQQQQQQQQQQQQQQQQQQEEEQQQQQRRRRRRRRRTTTTv QQQQQQQQQQQQQQ",
"QQQQQQQQQQQQQQQQQQQQQQQQQQ OEEQQQQQRRRRRRETTTT  QQQQQQQQQQQQQQQQ",
"QQQQQQQQQQQQQQQQQQQQQQQQQQ  EEQQRRRRRRRERTTTTT7 QQQQQQQQQQQQQQQQ",
"QQQQQQQQQQQQQQQQQQQQQQQQQQQQe  RRRRRRRRRRTTTT QQQQQQQQQQQQQQQQQQ",
"QQQQQQQQQQQQQQQQQQQQQQQQQQQQ   RRRRRERRTTTTTN QQQQQQQQQQQQQQQQQQ",
"QQQQQQQQQQQQQQQQQQQQQQQQQQQQQQQ  RRTTERTTTTT%.QQQQQQQQQQQQQQQQQQ",
"QQQQQQQQQQQQQQQQQQQQQQQQQQQQQQQX RRTTERTTTd;QQQQQQQQQQQQQQQQQQQQ",
"QQQQQQQQQQQQQQQQQQQQQQQQQQQQQQQQQghRRRRRTTc QQQQQQQQQQQQQQQQQQQQ",
"QQQQQQQQQQQQQQQQQQQQQQQQQQQQQQQQQ zRRRRRTTY QQQQQQQQQQQQQQQQQQQQ",
"QQQQQQQQQQQQQQQQQQQQQQQQQQQQQQQQQ   CtTTfeQQQQQQQQQQQQQQQQQQQQQQ",
"QQQQQQQQQQQQQQQQQQQQQQQQQQQQQQQQQQQ  rTTe.QQQQQQQQQQQQQQQQQQQQQQ",
"QQQQQQQQQQQQQQQQQQQQQQQQQQQQQQQQQQQQXI  QQQQQQQQQQQQQQQQQQQQQQQQ",
"QQQQQQQQQQQQQQQQQQQQQQQQQQQQQQQQQQQQQQ  QQQQQQQQQQQQQQQQQQQQQQQQ",
"QQQQQQQQQQQQQQQQQQQQQQQQQQQQQQQQQQQQQQ  QQQQQQQQQQQQQQQQQQQQQQQQ",
"QQQQQQQQQQQQQQQQQQQQQQQQQQQQQQQQQQQQQQQQQQQQQQQQQQQQQQQQQQQQQQQQ",
"QQQQQQQQQQQQQQQQQQQQQQQQQQQQQQQQQQQQQQQQQQQQQQQQQQQQQQQQQQQQQQQQ",
"QQQQQQQQQQQQQQQQQQQQQQQQQQQQQQQQQQQQQQQQQQQQQQQQQQQQQQQQQQQQQQQQ",
"QQQQQQQQQQQQQQQQQQQQQQQQQQQQQQQQQQQQQQQQQQQQQQQQQQQQQQQQQQQQQQQQ",
"QQQQQQQQQQQQQQQQQQQQQQQQQQQQQQQQQQQQQQQQQQQQQQQQQQQQQQQQQQQQQQQQ"
};
