/* XPM */
static char *result[] = {
/* columns rows colors chars-per-pixel */
"64 64 10 1 ",
"  c #191919",
". c gray16",
"X c #464646",
"o c #626262",
"O c #990B0B",
"+ c #BA0E0E",
"@ c #D20606",
"# c red",
"$ c #898989",
"% c None",
/* pixels */
"%%%%%%%%%%%%%%%%%%%%%%%%%%%%%%%%%%%%%%%%%%%%%%%%%%%%%%%%%%%%%%%%",
"%%%%%%%%%%%%%%%%%%%%%%%%%%%%%%%  %%%%%%%%%%%%%%%%%%%%%%%%%%%%%%%",
"%%%%%%%%%%%%%%%%%%%%%%%%%%%%   ##   %%%%%%%%%%%%%%%%%%%%%%%%%%%%",
"%%%%%%%%%%%%%%%%%%%%%%%%%%% #####OOO %%%%%%%%%%%%%%%%%%%%%%%%%%%",
"%%%%%%%%%%%%%%%%%%%%%%%%%   #####OOO   %%%%%%%%%%%%%%%%%%%%%%%%%",
"%%%%%%%%%%%%%%%%%%%%%%%% ######++OOOOOO %%%%%%%%%%%%%%%%%%%%%%%%",
"%%%%%%%%%%%%%%%%%%%%%%%% @###++++++OOOO %%%%%%%%%%%%%%%%%%%%%%%%",
"%%%%%%%%%%%%%%%%%%%%%%%% @@@++++++++OOO %%%%%%%%%%%%%%%%%%%%%%%%",
"%%%%%%%%%%%%%%%%%        @@@++++++++OOO        %%%%%%%%%%%%%%%%%",
"%%%%%%%%%%%%%%   Xoooooo @@@++++++++OOX ooooooo   %%%%%%%%%%%%%%",
"%%%%%%%%%%%%  $$$$oooooo @@@+++++++oXXX oooooooooo  %%%%%%%%%%%%",
"%%%%%%%%%%% $$$$$$oXXXXX @@@O++++oo...X XXXXXooooXXX %%%%%%%%%%%",
"%%%%%%%%%%% $$$$$$oXXXXX @@@O++oooo...X XXXXXooooXXX %%%%%%%%%%%",
"%%%%%%%%%%% $$$$$$X      @OOOOOoo......      XXXXXXX %%%%%%%%%%%",
"%%%%%%%%%% o$$$$$  $$$$$$   OOXX....   $$$$$$  ooXXXX %%%%%%%%%%",
"%%%%%%%%%% o$$$$$  $$$$$$   OXXX....   $$$$$$  ooXXXX %%%%%%%%%%",
"%%%%%%%%%% ooooXX $$$$$$$XXX   X.   $$$$$$$XXX ooXXXX %%%%%%%%%%",
"%%%%%%%%%% oooX  $$$$ooooXXXXXX  $$$$$$ooooXXXX  oXXX %%%%%%%%%%",
"%%%%%%%%%% oooX  $$oooooooooXXXX$$$$oooooooooXX  oXXX %%%%%%%%%%",
"%%%%%%%%%% oooX  $$oooooooooXXXX$$$$oooooooooXX  oXXX %%%%%%%%%%",
"%%%%%%%%%% oooX  $$ooooooooooooX$ooooooooooooXX  oXXX %%%%%%%%%%",
"%%%%%%%%%% oooX  $$ooooooooooooX$ooooooooooooXX  oXXX %%%%%%%%%%",
"%%%%%%%%%% oooX  $$ooooooooooooX$ooooooooooooXX  oXXX %%%%%%%%%%",
"%%%%%%%%%% oooX  $$ooooooooooooX$ooooooooooooXX  oXXX %%%%%%%%%%",
"%%%%%%%%%% oooX  $$ooooooooooooX$ooooooooooooXX  oXXX %%%%%%%%%%",
"%%%%%%%%%% oooX  $$ooooooooooooX$ooooooooooooXX  oXXX %%%%%%%%%%",
"%%%%%%%%%% oooX  $$ooooooooooooX$ooooooooooooXX  oXXX %%%%%%%%%%",
"%%%%%%%%%% oooX  $$ooooooooooooX$ooooooooooooXX  oXXX %%%%%%%%%%",
"%%%%%%%%%% oooX  $$ooooooooooooX$ooooooooooooXX  oXXX %%%%%%%%%%",
"%%%%%%%%%% oooX  $$ooooooooooooX$ooooooooooooXX  oXXX %%%%%%%%%%",
"%%%%%%%%%% oooX  $$ooooooooooooX$ooooooooooooXX  oXXX %%%%%%%%%%",
"%%%%%%%%%% oooX  $$ooooooooooooX$ooooooooooooXX  oXXX %%%%%%%%%%",
"%%%%%%%%%% oooX  $$ooooooooooooX$ooooooooooooXX  oXXX %%%%%%%%%%",
"%%%%%%%%%% oooX  $$ooooooooooooX$ooooooooooooXX  oXXX %%%%%%%%%%",
"%%%%%%%%%% oooX  $$ooooooooooooX$ooooooooooooXX  oXXX %%%%%%%%%%",
"%%%%%%%%%% oooX  $$ooooooooooooX$ooooooooooooXX  oXXX %%%%%%%%%%",
"%%%%%%%%%% oooX  $$ooooooooooooX$ooooooooooooXX  oXXX %%%%%%%%%%",
"%%%%%%%%%% oooX  $$ooooooooooooX$ooooooooooooXX  oXXX %%%%%%%%%%",
"%%%%%%%%%% oooX  $$ooooooooooooX$ooooooooooooXX  oXXX %%%%%%%%%%",
"%%%%%%%%%% oooX  $$ooooooooooooX$ooooooooooooXX  oXXX %%%%%%%%%%",
"%%%%%%%%%% oooX  $$oooooo   oooX$ooo   ooooooXX  oXXX %%%%%%%%%%",
"%%%%%%%%%% oooX  $$oooooo   oooX$ooo   ooooooXX  oXXX %%%%%%%%%%",
"%%%%%%%%%% oooX  $$oooooo   oooX$ooo   ooooooXX  oXXX %%%%%%%%%%",
"%%%%%%%%%% oooX  $$oooooo   oooX$ooo   ooooooXX  oXXX %%%%%%%%%%",
"%%%%%%%%%% oooX  $$ooooooooooooX$ooooooooooooXX  oXXX %%%%%%%%%%",
"%%%%%%%%%% oooX  $$ooooooooooooX$ooooooooooooXX  oXXX %%%%%%%%%%",
"%%%%%%%%%% oooX  $$ooooooooooooX$ooooooooooooXX  oXXX %%%%%%%%%%",
"%%%%%%%%%% oooX  $$ooooooooooooX$ooooooooooooXX  oXXX %%%%%%%%%%",
"%%%%%%%%%% oooX  $$ooooooooooooX$ooooooooooooXX  oXXX %%%%%%%%%%",
"%%%%%%%%%% oooX  $$ooooooooooooX$ooooooooooooXX  oXXX %%%%%%%%%%",
"%%%%%%%%%% oooX  $$ooooooooooooX$ooooooooooooXX  oXXX %%%%%%%%%%",
"%%%%%%%%%% oooX  $$ooooooooooooX$ooooooooooooXX  oXXX %%%%%%%%%%",
"%%%%%%%%%  oooX  $$ooooooooooooX$ooooooooooooXX  oXXX %%%%%%%%%%",
"%%%%%%%% $$$ooX  $$ooooooooooooX$ooooooooooooXX  oXXoo  %%%%%%%%",
"%%%%%%% $$$$ooX  $$ooooooooooooX$ooooooooooooXX  oXXoooo %%%%%%%",
"%%%%%%% $$$$ooX  $$ooooooooooooX$ooooooooooooXX  oXXoooo %%%%%%%",
"%%%%%%% $$$oooX  $$ooooooooooooX$ooooooooooooXX  oXXXooo %%%%%%%",
"%%%%%%% ooooooX  $$ooooooooooooX$ooooooooooooXX  oXXXXXX %%%%%%%",
"%%%%%%% ooooooX  $$ooooooooooooX$ooooooooooooXX  oXXXXXX %%%%%%%",
"%%%%%%% ooooooX  $$ooooooooooooX$ooooooooooooXX  oXXXXXX %%%%%%%",
"%%%%%%% ooooooX  $$ooooooooooooX$ooooooooooooXX  oXXXXXX %%%%%%%",
"%%%%%%% ooooooX  $$ooooooooooooX$ooooooooooooXX  oXXXXXX %%%%%%%",
"%%%%%%% ooooooX  $$ooooooooooooX$ooooooooooooXX  oXXXXXX %%%%%%%",
"%%%%%%% XXXXXX.  ooXXXXXXXXXXXXXoXXXXXXXXXXXX..  X...... %%%%%%%"
};
