/* XPM */
static char *result[] = {
/* columns rows colors chars-per-pixel */
"64 64 17 1 ",
"  c #191919",
". c gray16",
"X c #540000",
"o c #5E0303",
"O c #6A0202",
"+ c #464646",
"@ c #626262",
"# c #800101",
"$ c #830101",
"% c #8B0303",
"& c #8E0909",
"* c #990B0B",
"= c #BA0E0E",
"- c #D20606",
"; c red",
": c #898989",
"> c None",
/* pixels */
">>>>>>>>>>>>>>>>>>>>>>>>>>>>>>>>>>>>>>>>>>>>>>>>>>>>>>>>>>>>>>>>",
">>>>>>>>>>>>>>>>>>>>>>>>>>>>>>>  >>>>>>>>>>>>>>>>>>>>>>>>>>>>>>>",
">>>>>>>>>>>>>>>>>>>>>>>>>>>>   ;;   >>>>>>>>>>>>>>>>>>>>>>>>>>>>",
">>>>>>>>>>>>>>>>>>>>>>>>>>> ;;;;;*** >>>>>>>>>>>>>>>>>>>>>>>>>>>",
">>>>>>>>>>>>>>>>>>>>>>>>>   ;;;;;***   >>>>>>>>>>>>>>>>>>>>>>>>>",
">>>>>>>>>>>>>>>>>>>>>>>> ;;;;;;==****** >>>>>>>>>>>>>>>>>>>>>>>>",
">>>>>>>>>>>>>>>>>>>>>>>> -;;;======**** >>>>>>>>>>>>>>>>>>>>>>>>",
">>>>>>>>>>>>>>>>>>>>>>>> ---========*** >>>>>>>>>>>>>>>>>>>>>>>>",
">>>>>>>>>>>>>>>>>        ---========***        >>>>>>>>>>>>>>>>>",
">>>>>>>>>>>>>>   +@@@@@@ ---========*** @@@@@@@   >>>>>>>>>>>>>>",
">>>>>>>>>>>>  ::::@@@@@@ ---========*** @@@@@@@@@@  >>>>>>>>>>>>",
">>>>>>>>>>> ::::::@+++++ ---*======ooo* +++++@@@@+++ >>>>>>>>>>>",
">>>>>>>>>>> ::::::@+++++ ---*======ooo* +++++@@@@+++ >>>>>>>>>>>",
">>>>>>>>>>> ::::::+      -*****==oooooo      +++++++ >>>>>>>>>>>",
">>>>>>>>>> @:::::  XXXXXX   ****oooo   XXXXXX  @@++++ >>>>>>>>>>",
">>>>>>>>>> @:::::  XXXXXXXX ****oooo XXXXXXXX  @@++++ >>>>>>>>>>",
">>>>>>>>>> @@@@++ XXXXXXXXXX   *o   XXXXXXXXXX @@++++ >>>>>>>>>>",
">>>>>>>>>> @@@+  XXXXXOOOXXXXXX  XXXXXXOOOXXXXX  @+++ >>>>>>>>>>",
">>>>>>>>>> @@@+  XXXXXOOOOOOXXXXXXXXOOOOOOXXXXX  @+++ >>>>>>>>>>",
">>>>>>>>>> @@@+  XXXXOOOOOOOOOOOOOOOOOO$OOOXXXX  @+++ >>>>>>>>>>",
">>>>>>>>>> @@@+  XXXOOO$$OOOOOOOOOOOO$$$OOOOXXX  @+++ >>>>>>>>>>",
">>>>>>>>>> @@@+  XXXOOO#####$$$$$$$$$$$$$OOOXXX  @+++ >>>>>>>>>>",
">>>>>>>>>> @@@+  XXXOOO############$$$$$$OOOOXX  @+++ >>>>>>>>>>",
">>>>>>>>>> @@@+  XXXOOO##############$$&&&%OOXX  @+++ >>>>>>>>>>",
">>>>>>>>>> @@@+  XXXOOO##############$$&&&$OOXX  @+++ >>>>>>>>>>",
">>>>>>>>>> @@@+  XXXOOO##############$$&&&$OOXX  @+++ >>>>>>>>>>",
">>>>>>>>>> @@@+  XXXOOO$############$$$&&&&OOXX  @+++ >>>>>>>>>>",
">>>>>>>>>> @@@+  XXXOOO$############&&&&&&&OOXX  @+++ >>>>>>>>>>",
">>>>>>>>>> @@@+  XXXOOO$############&&&&&&&OOXX  @+++ >>>>>>>>>>",
">>>>>>>>>> @@@+  XXXOOO$############&&&&&&&OOXX  @+++ >>>>>>>>>>",
">>>>>>>>>> @@@+  XXXOOO$############&&&&&&$OOXX  @+++ >>>>>>>>>>",
">>>>>>>>>> @@@+  XXXOOO$$###########&&&&&&$OOXX  @+++ >>>>>>>>>>",
">>>>>>>>>> @@@+  XXXOOO$$###########&&&&&&$OOXX  @+++ >>>>>>>>>>",
">>>>>>>>>> @@@+  XXXOOO$############&&&&&&$OOXX  @+++ >>>>>>>>>>",
">>>>>>>>>> @@@+  XXXOOO$############&&&&&&&OOXX  @+++ >>>>>>>>>>",
">>>>>>>>>> @@@+  XXXOOO$############&&&&&&&OOXX  @+++ >>>>>>>>>>",
">>>>>>>>>> @@@+  XXXOOO$############&&&&&&&OOXX  @+++ >>>>>>>>>>",
">>>>>>>>>> @@@+  XXXOOO$############&&&&&&&OOXX  @+++ >>>>>>>>>>",
">>>>>>>>>> @@@+  XXXOOO$###########&&&&&&&&OOXX  @+++ >>>>>>>>>>",
">>>>>>>>>> @@@+  XXXOOO$###########&&&&$&&&OOXX  @+++ >>>>>>>>>>",
">>>>>>>>>> @@@+  XXXOOO$###########&&&&&&&&OOXX  @+++ >>>>>>>>>>",
">>>>>>>>>> @@@+  XXXOOO$###########&&&&&&&&OOXX  @+++ >>>>>>>>>>",
">>>>>>>>>> @@@+  XXXOOO$###########&&&&&&&&OOXX  @+++ >>>>>>>>>>",
">>>>>>>>>> @@@+  XXXOOO$###########&&&&&&&&OOXX  @+++ >>>>>>>>>>",
">>>>>>>>>> @@@+  XXXOOO$###########&&&&&&&&OOXX  @+++ >>>>>>>>>>",
">>>>>>>>>> @@@+  XXXOOO$###########&&&&&&&&OOXX  @+++ >>>>>>>>>>",
">>>>>>>>>> @@@+  XXXOOO$#########&&&&&&&&&$OOXX  @+++ >>>>>>>>>>",
">>>>>>>>>> @@@+  XXXOOO$$######&&&&&&&&&&&$OOXX  @+++ >>>>>>>>>>",
">>>>>>>>>> @@@+  XXXOOO$$#####&&&&&&&&&&&&$OOXX  @+++ >>>>>>>>>>",
">>>>>>>>>> @@@+  XXXOOO$$#####&&&&&&&&&&&&$OOXX  @+++ >>>>>>>>>>",
">>>>>>>>>> @@@+  XXXOOO$$$####&&&&&&&&&&&&$OOXX  @+++ >>>>>>>>>>",
">>>>>>>>>> @@@+  XXXOOO$$$####&&&&&&&&&&&&$OOXX  @+++ >>>>>>>>>>",
">>>>>>>>>  @@@+  XXXOOO$$$$###&&&&&&&&&&&&$OOXX  @+++ >>>>>>>>>>",
">>>>>>>> :::@@+  XXXOOO$$$$###&&&&&&&&&&&&$OOXX  @++@@  >>>>>>>>",
">>>>>>> ::::@@+  XXXOOO$$$$###&&&&&&&&&&&&$OOXX  @++@@@@ >>>>>>>",
">>>>>>> ::::@@+  XXXOOO$$$$###&&&&&&&&&&&&$OOXX  @++@@@@ >>>>>>>",
">>>>>>> :::@@@+  XXXOOO$$$$$##&&&&&&&&&&&&$OOXX  @+++@@@ >>>>>>>",
">>>>>>> @@@@@@+  XXXOOO$$$$$#&&&&&&&&&&&&&$OOXX  @++++++ >>>>>>>",
">>>>>>> @@@@@@+  XXXOOO$$$$$#&&&&&&&&&&&&&$OOXX  @++++++ >>>>>>>",
">>>>>>> @@@@@@+  XXXOOO$$$$$#&&&&&&&&&&&&&$OOXX  @++++++ >>>>>>>",
">>>>>>> @@@@@@+  XXXOOO$$$$$#&&&&&&&&&&&&&&OOXX  @++++++ >>>>>>>",
">>>>>>> @@@@@@+  XXXOOO$$$$$&&&&&&&&&&&&&&&OOXX  @++++++ >>>>>>>",
">>>>>>> @@@@@@+  XXXOOO$$$$$&&&&&&&&&&&&&&&OOXX  @++++++ >>>>>>>",
">>>>>>> ++++++.  XXXOOO$$$$$&&&&&&&&&&&&&&&OOXX  +...... >>>>>>>"
};
