/* XPM */
static char *result[] = {
/* columns rows colors chars-per-pixel */
"64 64 13 1 ",
"  c #191919",
". c gray16",
"X c #540000",
"o c #6A0202",
"O c #464646",
"+ c #626262",
"@ c #800101",
"# c #830101",
"$ c #8B0303",
"% c #8E0909",
"& c #898989",
"* c #C5C5C5",
"= c None",
/* pixels */
"================================================================",
"===============================  ===============================",
"============================   **   ============================",
"=========================== *****OOO ===========================",
"=========================   *****OOO   =========================",
"======================== ******++OOOOOO ========================",
"======================== &***++++++OOOO ========================",
"======================== &&&++++++++OOO ========================",
"=================        &&&++++++++OOO        =================",
"==============   O++++++ &&&++++++++OOO +++++++   ==============",
"============  &&&&++++++ &&&++++++++OOO ++++++++++  ============",
"=========== &&&&&&+OOOOO &&&O++++++...O OOOOO++++OOO ===========",
"=========== &&&&&&+OOOOO &&&O++++++...O OOOOO++++OOO ===========",
"=========== &&&&&&O      &OOOOO++......      OOOOOOO ===========",
"========== +&&&&&  XXXXXX   OOOO....   XXXXXX  ++OOOO ==========",
"========== +&&&&&  XXXXXXXXXOOOO....XXXXXXXXX  ++OOOO ==========",
"========== ++++OO XXXXXXXXXX   O.   XXXXXXXXXX ++OOOO ==========",
"========== +++O  XXXXXoooXXXXXX  XXXXXXoooXXXXX  +OOO ==========",
"========== +++O  XXXXXooooooXXXXXXXXooooooXXXXX  +OOO ==========",
"========== +++O  XXXXoooooooooooooooooo#oooXXXX  +OOO ==========",
"========== +++O  XXXooo##oooooooooooo###ooooXXX  +OOO ==========",
"========== +++O  XXXooo@@@@@#############oooXXX  +OOO ==========",
"========== +++O  XXXooo@@@@@@@@@@@@######ooooXX  +OOO ==========",
"========== +++O  XXXooo@@@@@@@@@@@@@@##%%%$ooXX  +OOO ==========",
"========== +++O  XXXooo@@@@@@@@@@@@@@##%%%#ooXX  +OOO ==========",
"========== +++O  XXXooo@@@@@@@@@@@@@@##%%%#ooXX  +OOO ==========",
"========== +++O  XXXooo#@@@@@@@@@@@@###%%%%ooXX  +OOO ==========",
"========== +++O  XXXooo#@@@@@@@@@@@@%%%%%%%ooXX  +OOO ==========",
"========== +++O  XXXooo#@@@@@@@@@@@@%%%%%%%ooXX  +OOO ==========",
"========== +++O  XXXooo#@@@@@@@@@@@@%%%%%%%ooXX  +OOO ==========",
"========== +++O  XXXooo#@@@@@@@@@@@@%%%%%%#ooXX  +OOO ==========",
"========== +++O  XXXooo##@@@@@@@@@@@%%%%%%#ooXX  +OOO ==========",
"========== +++O  XXXooo##@@@@@@@@@@@%%%%%%#ooXX  +OOO ==========",
"========== +++O  XXXooo#@@@@@@@@@@@@%%%%%%#ooXX  +OOO ==========",
"========== +++O  XXXooo#@@@@@@@@@@@@%%%%%%%ooXX  +OOO ==========",
"========== +++O  XXXooo#@@@@@@@@@@@@%%%%%%%ooXX  +OOO ==========",
"========== +++O  XXXooo#@@@@@@@@@@@@%%%%%%%ooXX  +OOO ==========",
"========== +++O  XXXooo#@@@@@@@@@@@@%%%%%%%ooXX  +OOO ==========",
"========== +++O  XXXooo#@@@@@@@@@@@%%%%%%%%ooXX  +OOO ==========",
"========== +++O  XXXooo#@@@@@@@@@@@%%%%#%%%ooXX  +OOO ==========",
"========== +++O  XXXooo#@@@@@@@@@@@%%%%%%%%ooXX  +OOO ==========",
"========== +++O  XXXooo#@@@@@@@@@@@%%%%%%%%ooXX  +OOO ==========",
"========== +++O  XXXooo#@@@@@@@@@@@%%%%%%%%ooXX  +OOO ==========",
"========== +++O  XXXooo#@@@@@@@@@@@%%%%%%%%ooXX  +OOO ==========",
"========== +++O  XXXooo#@@@@@@@@@@@%%%%%%%%ooXX  +OOO ==========",
"========== +++O  XXXooo#@@@@@@@@@@@%%%%%%%%ooXX  +OOO ==========",
"========== +++O  XXXooo#@@@@@@@@@%%%%%%%%%#ooXX  +OOO ==========",
"========== +++O  XXXooo##@@@@@@%%%%%%%%%%%#ooXX  +OOO ==========",
"========== +++O  XXXooo##@@@@@%%%%%%%%%%%%#ooXX  +OOO ==========",
"========== +++O  XXXooo##@@@@@%%%%%%%%%%%%#ooXX  +OOO ==========",
"========== +++O  XXXooo###@@@@%%%%%%%%%%%%#ooXX  +OOO ==========",
"========== +++O  XXXooo###@@@@%%%%%%%%%%%%#ooXX  +OOO ==========",
"=========  +++O  XXXooo####@@@%%%%%%%%%%%%#ooXX  +OOO ==========",
"======== &&&++O  XXXooo####@@@%%%%%%%%%%%%#ooXX  +OO++  ========",
"======= &&&&++O  XXXooo####@@@%%%%%%%%%%%%#ooXX  +OO++++ =======",
"======= &&&&++O  XXXooo####@@@%%%%%%%%%%%%#ooXX  +OO++++ =======",
"======= &&&+++O  XXXooo#####@@%%%%%%%%%%%%#ooXX  +OOO+++ =======",
"======= ++++++O  XXXooo#####@%%%%%%%%%%%%%#ooXX  +OOOOOO =======",
"======= ++++++O  XXXooo#####@%%%%%%%%%%%%%#ooXX  +OOOOOO =======",
"======= ++++++O  XXXooo#####@%%%%%%%%%%%%%#ooXX  +OOOOOO =======",
"======= ++++++O  XXXooo#####@%%%%%%%%%%%%%%ooXX  +OOOOOO =======",
"======= ++++++O  XXXooo#####%%%%%%%%%%%%%%%ooXX  +OOOOOO =======",
"======= ++++++O  XXXooo#####%%%%%%%%%%%%%%%ooXX  +OOOOOO =======",
"======= OOOOOO.  XXXooo#####%%%%%%%%%%%%%%%ooXX  O...... ======="
};
