/* XPM */
static char *result[] = {
/* columns rows colors chars-per-pixel */
"64 64 78 1 ",
"  c #0C0C0C",
". c gray5",
"X c gray10",
"o c #1B1B1B",
"O c gray11",
"+ c #1E1E1E",
"@ c gray13",
"# c #222222",
"$ c #232323",
"% c gray21",
"& c #373737",
"* c gray22",
"= c #393939",
"- c gray23",
"; c #3C3C3C",
": c #790100",
"> c #7A0100",
", c #7A0200",
"< c #7B0200",
"1 c #434343",
"2 c #444444",
"3 c gray27",
"4 c #555555",
"5 c #5D5D5D",
"6 c gray37",
"7 c gray38",
"8 c #626262",
"9 c #646464",
"0 c #656565",
"q c gray40",
"w c #686868",
"e c #7E7E7E",
"r c gray50",
"t c #8C0600",
"y c #8D0600",
"u c #8D0700",
"i c #8E0700",
"p c #8D0900",
"a c #8E0900",
"s c #A80600",
"d c #A90600",
"f c #A90700",
"g c #A90900",
"h c #AA0900",
"j c #B10600",
"k c #B20700",
"l c #B20900",
"z c #B40900",
"x c #CD0600",
"c c #CD0700",
"v c #CE0600",
"b c #CE0700",
"n c #CE0900",
"m c #CF0900",
"M c #E80600",
"N c #E90600",
"B c #E90700",
"V c #E90900",
"C c #EB0900",
"Z c #848484",
"A c gray52",
"S c #8E8E8E",
"D c gray56",
"F c #9B9B9B",
"G c gray61",
"H c #9D9D9D",
"J c #A2A2A2",
"K c gray64",
"L c gray67",
"P c #ACACAC",
"I c gray71",
"U c #B6B6B6",
"Y c #B7B7B7",
"T c #B9B9B9",
"R c gray73",
"E c #BBBBBB",
"W c gray87",
"Q c None",
/* pixels */
"QQQQQQQQQQQQQQQQQQQQ:,>QQQQQQQQQQQQQQQQQQQQQQQQQQQQQQQQQQQQQQQQQ",
"QQQQQQQQQQQQQQQQQQQQQ3y,,QQQQQ,QQQQQQQQQQQQQQQQQQQQQQQQQQQQQQQQQ",
"QQQQQQQQQQQQQQQQQQQQQ,fff,:QQQaQQQQQQQQQQQQQQQQQQQQQQQQQQQQQQQQQ",
"QQQQQQQQQQQQQQQQQQQQQQfff3UQQ,y>QQQQQQQQQQQQQQQQQQQQQQQQQQQQQQQQ",
"QQQQQQQQQQQQQQQQQQQQQQMBBBM,Q32,QQQQQQQQQQQQQQQQQQQQQQQQQQQQQQQQ",
"QQQQQQQQQQQQQQQQQQQQQQMCCNB,Q23,QQQQQQQQQQQQQQQQQQQQQQQQQQQQQQQQ",
"QQQQQQQQQQQQQQQQQQQQQQ,vcvbvQBM>QQQQQQQQQQQQQQQQQQQQQQQQQQQQQQQQ",
"QQQQQQQQQQQQQQQQ16B,I>>rkzkz,xB<Q>QQQQQQQQQQQQQQQQQQQQQQQQQQQQQQ",
"QQQQQQQQQQQQQQQQ5BBbzkr21ffu,vrQd,QQQQQQQQQQQQQQQQQQQQQQQQQQQQQQ",
"QQQQQQQQQQQQQQQQ>Mvzkydf,dffuz,,4:QQQQQQQQQQQQQQQQQQQQQQQQQQQQQQ",
"QQQQQQQQQQQQQQQQQrbkigfdBBBBfu,2f<QQQQQQQQQQQQQQQQQQQQQQQQQQQQQQ",
"QQQQQQQQQQQQQQQQQ>ekugBMBCMBMgkBf,QQQQQQQQQQQQQQQQQQQQQQQQQQQQQQ",
"QQQQQQQQQQQQQQQQQQQepfBBJbnnBdun>:QQQQQQQQQQQQQQQQQQQQQQQQQQQQQQ",
"QQQQQQQQQQQQQQQ,bk221,VmbzkKKMpb&&QQQQQQQQQQQQQQQQQQQQQQQQQQQQQQ",
"QQQQQQQQQQQQQ>BvbzzpgfMvKTS>vMub5<%QQQQQQQQQQQQQQQQQQQQQQQQQQQQQ",
"QQQQQQQQQQQQ,BBvvlzugfVbkEJ,KCybfe&QQQQQQQQQQQQQQQQQQQQQQQQQQQQQ",
"QQQQQQQQQQQQQQ>MvzjyfsNbvzRDbBp1,&&QQQQQQQQQQQQQQQQQQQQQQQQQQQQQ",
"QQQQQQQQQQQQQQQQ>,Urw2BbxxTnWCu2&&7ZQQQQQQQQQQQQQQQQQQQQQQQQQQQQ",
"QQQQQQQQQQQQQQQQQQQrpsMMKvbbCdpb,&*&ZQQQQQQQQQQQQQQQQQQQQQQQQQQQ",
"QQQQQQQQQQQQQQQQQ>rjudCMCBBBBflMg&&.7QQQQQQQQQQQQQQQQQQQQQQQQQQQ",
"QQQQQQQQQQQQQQQQQbbjutffhdfffj>>2Y&&QQQQQQQQQQQQQQQQQQQQQQQQQQQQ",
"QQQQQQQQQQQQQQQQ,Bvmjzu6dgfdpkv22r&7*QQQQQQQQQQQQQQQQQQQQQQQQQQQ",
"QQQQQQQQQQQQQQQQMCCbbU>,uuyj>bb:,,&#QQQQQQQQQQQQQQQQQQQQQQQQQQQQ",
"QQQQQQQQQQQQQQQQ<,>:>:QzjlkrQb2,&>&7QQQQQQQQQQQQQQQQQQQQQQQQQQQQ",
"QQQQQQQQQQQQQQQQQQQQQQ,bmvbvQB2,QQ.87QQQQQQQQQQQQQQQQQQQQQQQQQQQ",
"QQQQQQQQQQQQQQQQQQQQQQNBMBB,Q21,QOZ&.QQQQQQQQQQQQQQQQQQQQQQQQQQQ",
"QQQQQQQQQQQQQQQQQQQQQQCMCBC:Q22>7.#&Q&QQQQQQQQQQQQQQQQQQQQQQQQQQ",
"QQQQQQQQQQQQQQQQQQQQQ,dd3f>QQQr+Z.&7QQQQQQQQQQQQQQQQQQQQQQQQQQQQ",
"QQQQQQQQQQQQQQQQQQQQQ,2u>>QQQ&1*+#8#QQQQQQQQQQQQQQQQQQQQQQQQQQQQ",
"QQQQQQQQQQQQQQQQQQQQQ>,,QQQ&Q#,*7.$QQQQQQQQQQQQQQQQQQQQQQQQQQQQQ",
"QQQQQQQQQQQQQQQQQQQQQQQQQQQQ7**.7&.QQQQQQQQQQQQQQQQQQQQQQQQQQQQQ",
"QQQQQQQQQQQQQQQQQQQQQQQQQQQQo OZ&&QQQQQQQQQQQQQQQQQQQQQQQQQQQQQQ",
"QQQQQQQQQQQQQQQQQQQQQQQQQQQ*=%7$&&QQQQQQQQQQQQQQQQQQQQQQQQQQQQQQ",
"QQQQQQQQQQQQQQQQQQQQQQQQQQQ*;Z7&7QQQQQQQQQQQQQQQQQQQQQQQQQQQQQQQ",
"QQQQQQQQQQQQQQQQQQQQQQQQQOQ8+Z7%QQQQoQQQQQQQQQQQQQQQQQQQQQQQQQQQ",
"QQQQQQQQQQQQQQQQQQQQQQQQQQ.&O.&*QQQQoQQQQQ0QQQQQQQQQQQQQQQQQQQQQ",
"QQQQQQQQQQQQQQQQQQQQQQQQQ..Q*7*QQQQOQQQQQQoQQQQQQQQQQQQQQQQQQQQQ",
"QQQQQQQQQQQQQQQQQQQQQQQQQ.QQ;.%QQQQO+QQQQXQQQQQQQQQQQQQQQQQQQQQQ",
"QQQQQQQQQQQQQQQQQQQQQQQQQQQ&- *7QQQQ*QQQQoQQQQQQQQQQQQQQQQQQQQQQ",
"QQQQQQQQQQQQQQQQQQQQQQQQQ.Q7.$7#&QQQOQQQQ+QQQQQQQQQQQQQQQQQQQQQQ",
"QQQQQQQQQQQQQQQQQQQQQQQQQO.Q&;#.7ZQQ+QQ+QoQQQQQQQQQQQQQQQQQQQQQQ",
"QQQQQQQQQQQQQQQQQQQQQQQQQQQ..- 7.7&Q.*QQo..QQQQQQQQQQQQQQQQQQQQQ",
"QQQQQQQQQQQQQQQQQQQQQQQQQQoO*-.&7%7.& .  Q.QQQQQQQQQQQQQQQQQQQQQ",
"QQQQQQQQQQQQQQQQQQQQQQQQQQQQ7.#7$&77Z7*+&*.QQQQQQQQQQQQQQQQQQQQQ",
"QQQQQQQQQQQQQQQQQQQQQQQQQ.Q&Q7&$.*7&A7& %8. QQQQQQQQQQQQQQQQQQQQ",
"QQQQQQQQQQQQQQQQQQQQQQQQ.Q.QQ7&*8.$L7&77&.Q0H0oQQ.QQQQQQQQQQQQQQ",
"QQQQQQQQQQQQQQQQQQQQQQQ=+=QQ&8#%7 *.7P&7Q&XZQQ;XXQ .QQQQQQQQQQQQ",
"QQQQQQQQQQQQQQQQQQQQQQ+QQO- &  & *&Z&&77&o+.QQQQQQQ QQQQQQQQQQQQ",
"QQQQQQQQQQQQQQQQQQQQQQQOQQ. #7. .#&&&P*&7..Q.QQQQQ.QQQQQQQQQQQQQ",
"QQQQQQQQQQQQQQQQQQQQQQQQQ%$ #7&.###8P&%& ##Q QQQQQQQQQQQQQQQQQQQ",
"QQQQQQQQQQQQQQQQQQQQQQQQQQ7 7 .7.#7.#A&% .&QQ=QQQQQQQQQQQQQQQQQQ",
"QQQQQQQQQQQQQQQQQQQQQQQQQQQQA... 8.%$#&###QQ;QQQQQQQQQQQQQQQQQQQ",
"QQQQQQQQQQQQQQQQQQQQQQQQQQQQ #.$##&%..... Q;QQQQQQQQQQQQQQQQQQQQ",
"QQQQQQQQQQQQQQQQQQQQQQQ;..... .. .A  . 8....+QQQQQQQQQQQQQQQQQQQ",
"QQQQQQQQQQQQQQQQQQQQQQ-+QXQ&.;G.8&.7.O+@Q#.QQoQ.QQQQQQQQQQQQQQQQ",
"QQQQQQQQQQQQQQQQQQQQQQ-QQQQQoG;7... .;-QQ..O-GQQ.QQQQQQQQQQQQQQQ",
"QQQQQQQQQQQQQQQQQQQQQQ=QQQ.+XHQ*...Q.O-0GFGQQ.--oOQQQQQQQQQQQQQQ",
"QQQQQQQQQQQQQQQQQQQQQQQ-QQQQ.0O.QQ .OQ.+QQo;.oQQQQQQQQQQQQQQQQQQ",
"QQQQQQQQQQQQQQQQQQQQQQQQQQ.Q O9oQQQQ+qQQQQQo..Q+oQQQQQQQQQQQQQQQ",
"QQQQQQQQQQQQQQQQQQQQQQQQQQQ+.QQ+oQQQQ-QQ+..QQ.. +-QQQQQQQQQQQQQQ",
"QQQQQQQQQQQQQQQQQQQQQQQQQQQ QQQQQ+QQQQQ;QQQQQQQQQQ=QQQQQQQQQQQQQ",
"QQQQQQQQQQQQQQQQQQQQQQQQQQQOQQQQQOQQoQ.Q+QQ+QQQQQQQ+QQQQQQQQQQQQ",
"QQQQQQQQQQQQQQQQQQQQQQQQQQQQoQQ.XQQQQ QQOO=QQQQQQQQQQQQQQQQQQQQQ",
"QQQQQQQQQQQQQQQQQQQQQQQQQQQQQQQQQQQQQQQQQQQQQQQQQQQQQQQQQQQQQQQQ"
};
