/* XPM */
static char *result[] = {
/* columns rows colors chars-per-pixel */
"64 64 2 1 ",
"  c #2D2D2D",
". c None",
/* pixels */
"    ........        ............................................",
"    ........        ............................................",
"    ........        ............................................",
"    ........        ............................................",
"................................................................",
"................................................................",
"................................................................",
"................................................................",
"........        ................................................",
"........        ................................................",
"........        ................................................",
"........        ................................................",
"    ....        ................................................",
"    ....        ................................................",
"    ....        ................................................",
"    ....        ................................................",
"    ............................................................",
"    ............................................................",
"    ............................................................",
"    ............................................................",
"................................................................",
"................................................................",
"................................................................",
"................................................................",
"................................................................",
"................................................................",
"................................................................",
"................................................................",
"................................................................",
"................................................................",
"................................................................",
"................................................................",
"................................................................",
"................................................................",
"................................................................",
"................................................................",
"................................................................",
"................................................................",
"................................................................",
"................................................................",
"................................................................",
"................................................................",
"................................................................",
"................................................................",
"................................................................",
"................................................................",
"................................................................",
"................................................................",
"................................................................",
"................................................................",
"................................................................",
"................................................................",
"................................................................",
"................................................................",
"................................................................",
"................................................................",
"................................................................",
"................................................................",
"................................................................",
"................................................................",
"................................................................",
"................................................................",
"................................................................",
"................................................................"
};
