/* XPM */
static char *result[] = {
/* columns rows colors chars-per-pixel */
"64 64 4 1 ",
"  c #363636",
". c #888888",
"X c gray77",
"o c None",
/* pixels */
"oooooooooooooooooooo                    oooooooooooooooooooooooo",
"oooooooooooooooooooo                    oooooooooooooooooooooooo",
"ooooooooooooooo                             oooooooooooooooooooo",
"ooooooooooooooo                             oooooooooooooooooooo",
"ooooooooooooo                                 oooooooooooooooooo",
"ooooooooooooo                                 oooooooooooooooooo",
"ooooooooooooo  ...                        ..  oooooooooooooooooo",
"ooooooooooooo  ...                        ..  oooooooooooooooooo",
"ooooooooooooo  ...                        ..  oooooooooooooooooo",
"ooooooooooo    ...                        ..     ooooooooooooooo",
"ooooooooooo    ...                        ..     ooooooooooooooo",
"ooooooooooo  .........                  ......   ooooooooooooooo",
"ooooooooooo  .........                  ......   ooooooooooooooo",
"ooooooooo    .................................     ooooooooooooo",
"ooooooooo    .................................     ooooooooooooo",
"ooooooooo      ...............................     ooooooooooooo",
"ooooooooo      ...............................     ooooooooooooo",
"ooooooooo         ..........................       ooooooooooooo",
"ooooooooo         ..........................       ooooooooooooo",
"ooooooooo               ................           ooooooooooooo",
"ooooooooo               ................           ooooooooooooo",
"ooooooooo                                            ooooooooooo",
"ooooooooo                                            ooooooooooo",
"ooooooooo                                            ooooooooooo",
"ooooooooo                                            ooooooooooo",
"ooooooooo                                            ooooooooooo",
"ooooooooo                                            ooooooooooo",
"ooooooooo                                            ooooooooooo",
"ooooooo                                              ooooooooooo",
"ooooooo                                              ooooooooooo",
"ooooooo                                                ooooooooo",
"ooooooo                                                ooooooooo",
"ooooooo                                                ooooooooo",
"ooooooo                                                ooooooooo",
"ooooooo                                                ooooooooo",
"ooooooo                                                ooooooooo",
"oooo                                                     ooooooo",
"oooo                                                     ooooooo",
"oooo                                                        oooo",
"oooo                                                        oooo",
"oooo                                                        oooo",
"oooo                                                        oooo",
"oooo                                                        oooo",
"oo                                                            oo",
"oo                                                            oo",
"oo                                                            oo",
"oo                                                            oo",
"                                                                ",
"                                                                ",
"                  XXXX  ..............    oooo                  ",
"                  XXXX  ..............    oooo                  ",
"             oo   XXXX  XX...XXXX..XXXXX  ooooooooo             ",
"             oo   XXXX  XX...XXXX..XXXXX  ooooooooo             ",
"           ooooooo    XXXX.....XXXX.....  ooooooooooo           ",
"           ooooooo    XXXX.....XXXX.....  ooooooooooo           ",
"oo           ooooo  XX..XXXXX..XXXXXXXXX  ooooooooo           oo",
"oo           ooooo  XX..XXXXX..XXXXXXXXX  ooooooooo           oo",
"oo           ooooo  XX..XXXXX..XXXXXXXXX  ooooooooo           oo",
"ooooooo      ooooooo    XXXXXXX....XXX  ooooooooooo      ooooooo",
"ooooooo      ooooooo    XXXXXXX....XXX  ooooooooooo      ooooooo",
"oooooooooooooooooooooooo              oooooooooooooooooooooooooo",
"oooooooooooooooooooooooo              oooooooooooooooooooooooooo",
"ooooooooooooooooooooooooooooooooo     oooooooooooooooooooooooooo",
"ooooooooooooooooooooooooooooooooo     oooooooooooooooooooooooooo"
};
