/* XPM */
static char *result[] = {
/* columns rows colors chars-per-pixel */
"64 64 4 1 ",
"  c #363636",
". c #888888",
"X c gray77",
"o c None",
/* pixels */
"oooooooooooooooooooooo                    oooooooooooooooooooooo",
"oooooooooooooooooooooo                    oooooooooooooooooooooo",
"oooooooooooooooooo                            oooooooooooooooooo",
"oooooooooooooooooo                            oooooooooooooooooo",
"ooooooooooooooo                                  ooooooooooooooo",
"ooooooooooooooo                                  ooooooooooooooo",
"ooooooooooooooo   ..                        ..   ooooooooooooooo",
"ooooooooooooooo   ..                        ..   ooooooooooooooo",
"ooooooooooooooo   ..                        ..   ooooooooooooooo",
"ooooooooooooo     ..                        ..     ooooooooooooo",
"ooooooooooooo     ..                        ..     ooooooooooooo",
"ooooooooooooo  .........                .........  ooooooooooooo",
"ooooooooooooo  .........                .........  ooooooooooooo",
"ooooooooooo    ..................................    ooooooooooo",
"ooooooooooo    ..................................    ooooooooooo",
"ooooooooooo    ..................................    ooooooooooo",
"ooooooooooo    ..................................    ooooooooooo",
"ooooooooooo         ........................         ooooooooooo",
"ooooooooooo         ........................         ooooooooooo",
"ooooooooooo             ................             ooooooooooo",
"ooooooooooo             ................             ooooooooooo",
"ooooooooooo                                          ooooooooooo",
"ooooooooooo                                          ooooooooooo",
"ooooooooooo                                          ooooooooooo",
"ooooooooooo                                          ooooooooooo",
"ooooooooooo                                          ooooooooooo",
"ooooooooooo                                          ooooooooooo",
"ooooooooooo                                          ooooooooooo",
"ooooooooooo                                          ooooooooooo",
"ooooooooooo                                          ooooooooooo",
"ooooooooo                                              ooooooooo",
"ooooooooo                                              ooooooooo",
"ooooooooo                                              ooooooooo",
"ooooooooo                                              ooooooooo",
"ooooooooo                                              ooooooooo",
"ooooooooo                                              ooooooooo",
"ooooooo                                                  ooooooo",
"ooooooo                                                  ooooooo",
"oooo                                                        oooo",
"oooo                                                        oooo",
"oooo                                                        oooo",
"oooo                                                        oooo",
"oooo                                                        oooo",
"oo                                                            oo",
"oo                                                            oo",
"oo                                                            oo",
"oo                                                            oo",
"                                                                ",
"                                                                ",
"                    XX    ..............  XX                    ",
"                    XX    ..............  XX                    ",
"             ooooo    ....XXX..XXXXXXX....    ooooo             ",
"             ooooo    ....XXX..XXXXXXX....    ooooo             ",
"           ooooooooo  ..XXXXXXX..XXXXXXX..  ooooooooo           ",
"           ooooooooo  ..XXXXXXX..XXXXXXX..  ooooooooo           ",
"oo           ooooooo  XX..XXXXXXX..XXXXXXX  ooooooo           oo",
"oo           ooooooo  XX..XXXXXXX..XXXXXXX  ooooooo           oo",
"oo           ooooooo  XX..XXXXXXX..XXXXXXX  ooooooo           oo",
"ooooooo      ooooooooo  .....XXXXXX.....  ooooooooo      ooooooo",
"ooooooo      ooooooooo  .....XXXXXX.....  ooooooooo      ooooooo",
"oooooooooooooooooooooo                    oooooooooooooooooooooo",
"oooooooooooooooooooooo                    oooooooooooooooooooooo",
"oooooooooooooooooooooooo     oooooo     oooooooooooooooooooooooo",
"oooooooooooooooooooooooo     oooooo     oooooooooooooooooooooooo"
};
