/* XPM */
static char *result[] = {
/* columns rows colors chars-per-pixel */
"64 64 4 1 ",
"  c #363636",
". c #888888",
"X c gray77",
"o c None",
/* pixels */
"oooooooooooooooooooooooo                    oooooooooooooooooooo",
"oooooooooooooooooooooooo                    oooooooooooooooooooo",
"oooooooooooooooooooo                             ooooooooooooooo",
"oooooooooooooooooooo                             ooooooooooooooo",
"oooooooooooooooooo                                 ooooooooooooo",
"oooooooooooooooooo                                 ooooooooooooo",
"oooooooooooooooooo  ..                        ...  ooooooooooooo",
"oooooooooooooooooo  ..                        ...  ooooooooooooo",
"oooooooooooooooooo  ..                        ...  ooooooooooooo",
"ooooooooooooooo     ..                        ...    ooooooooooo",
"ooooooooooooooo     ..                        ...    ooooooooooo",
"ooooooooooooooo   ......                  .........  ooooooooooo",
"ooooooooooooooo   ......                  .........  ooooooooooo",
"ooooooooooooo     .................................    ooooooooo",
"ooooooooooooo     .................................    ooooooooo",
"ooooooooooooo     ...............................      ooooooooo",
"ooooooooooooo     ...............................      ooooooooo",
"ooooooooooooo       ..........................         ooooooooo",
"ooooooooooooo       ..........................         ooooooooo",
"ooooooooooooo           ................               ooooooooo",
"ooooooooooooo           ................               ooooooooo",
"ooooooooooo                                            ooooooooo",
"ooooooooooo                                            ooooooooo",
"ooooooooooo                                            ooooooooo",
"ooooooooooo                                            ooooooooo",
"ooooooooooo                                            ooooooooo",
"ooooooooooo                                            ooooooooo",
"ooooooooooo                                            ooooooooo",
"ooooooooooo                                              ooooooo",
"ooooooooooo                                              ooooooo",
"ooooooooo                                                ooooooo",
"ooooooooo                                                ooooooo",
"ooooooooo                                                ooooooo",
"ooooooooo                                                ooooooo",
"ooooooooo                                                ooooooo",
"ooooooooo                                                ooooooo",
"ooooooo                                                     oooo",
"ooooooo                                                     oooo",
"oooo                                                        oooo",
"oooo                                                        oooo",
"oooo                                                        oooo",
"oooo                                                        oooo",
"oooo                                                        oooo",
"oo                                                            oo",
"oo                                                            oo",
"oo                                                            oo",
"oo                                                            oo",
"                                                                ",
"                                                                ",
"                  oooo  ................  XXXX                  ",
"                  oooo  ................  XXXX                  ",
"             ooooooooo  ..XXXXX....XXXXX  XXXX   oo             ",
"             ooooooooo  ..XXXXX....XXXXX  XXXX   oo             ",
"           ooooooooooo  .....XXXX.....XXXX    ooooooo           ",
"           ooooooooooo  .....XXXX.....XXXX    ooooooo           ",
"oo           ooooooooo  XX...XXXXXXXXX....XX  ooooo           oo",
"oo           ooooooooo  XX...XXXXXXXXX....XX  ooooo           oo",
"oo           ooooooooo  XX...XXXXXXXXX....XX  ooooo           oo",
"ooooooo      ooooooooooo  XXX....XXXXXXX    ooooooo      ooooooo",
"ooooooo      ooooooooooo  XXX....XXXXXXX    ooooooo      ooooooo",
"oooooooooooooooooooooooooo              oooooooooooooooooooooooo",
"oooooooooooooooooooooooooo              oooooooooooooooooooooooo",
"oooooooooooooooooooooooooo     ooooooooooooooooooooooooooooooooo",
"oooooooooooooooooooooooooo     ooooooooooooooooooooooooooooooooo"
};
