/* XPM */
static char *result[] = {
/* columns rows colors chars-per-pixel */
"64 64 5 1 ",
"  c black",
". c red",
"X c #888888",
"o c gray77",
"O c None",
/* pixels */
"OOOOOOOOOOOOOOOOOOOOXX                XXOOOOOOOOOOOOOOOOOOOOOOOO",
"OOOOOOOOOOOOOOOOOOOOXX                XXOOOOOOOOOOOOOOOOOOOOOOOO",
"OOOOOOOOOOOOOOOXXX                        XXOOOOOOOOOOOOOOOOOOOO",
"OOOOOOOOOOOOOOOXXX                        XXOOOOOOOOOOOOOOOOOOOO",
"OOOOOOOOOOOOO                                 OOOOOOOOOOOOOOOOOO",
"OOOOOOOOOOOOO                                 OOOOOOOOOOOOOOOOOO",
"OOOOOOOOOOOOO                                 XXXOOOOOOOOOOOOOOO",
"OOOOOOOOOOOOO                                 XXXOOOOOOOOOOOOOOO",
"OOOOOOOOOOOOO                                 XXXOOOOOOOOOOOOOOO",
"OOOOOOOOOOO                                      OOOOOOOOOOOOOOO",
"OOOOOOOOOOO                                      OOOOOOOOOOOOOOO",
"OOOOOOOOOOO                                      XXOOOOOOOOOOOOO",
"OOOOOOOOOOO                                      XXOOOOOOOOOOOOO",
"OOOOOOOOOXX                                      XXOOOOOOOOOOOOO",
"OOOOOOOOOXX                                      XXOOOOOOOOOOOOO",
"OOOOOOOOOXX         XX         XX                XXOOOOOOOOOOOOO",
"OOOOOOOOOXX         XX         XX                XXOOOOOOOOOOOOO",
"OOOOOOOOOXX                    ooXX              XXOOOOOOOOOOOOO",
"OOOOOOOOOXX                    ooXX              XXOOOOOOOOOOOOO",
"OOOOOOOOO      XXXoooooo       oo  oooooooXX       OOOOOOOOOOOOO",
"OOOOOOOOO      XXXoooooo       oo  oooooooXX       OOOOOOOOOOOOO",
"OOOOOOOOO      ooooooooooo       ooooooooooo       OOOOOOOOOOOOO",
"OOOOOOOOO      ooooooooooo       ooooooooooo       OOOOOOOOOOOOO",
"OOOOOOOOO    XXoooooXX..XX   XX  XX...XXooooXX     XXOOOOOOOOOOO",
"OOOOOOOOO    XXoooooXX..XX   XX  XX...XXooooXX     XXOOOOOOOOOOO",
"OOOOOOOOO    XXoooooXX..XX   XX  XX...XXooooXX     XXOOOOOOOOOOO",
"OOOOOOOOO    XXoooXX....oo       oo.....XXooXX     XXOOOOOOOOOOO",
"OOOOOOOOO    XXoooXX....oo       oo.....XXooXX     XXOOOOOOOOOOO",
"OOOOOOOOO    XXooooooo..oo   oo  oo...ooooooXX     XXOOOOOOOOOOO",
"OOOOOOOOO    XXooooooo..oo   oo  oo...ooooooXX     XXOOOOOOOOOOO",
"OOOOOOOOO      XXXoooooo  ooooooo  oooooooXX       XXOOOOOOOOOOO",
"OOOOOOOOO      XXXoooooo  ooooooo  oooooooXX       XXOOOOOOOOOOO",
"OOOOOOOXX               ooooooooooo                  OOOOOOOOOOO",
"OOOOOOOXX               ooooooooooo                  OOOOOOOOOOO",
"OOOOOOOXX      XXX    oooooooooooooooo    XX           OOOOOOOOO",
"OOOOOOOXX      XXX    oooooooooooooooo    XX           OOOOOOOOO",
"OOOOOOO      XXXXXXXXX                XXXXXXXXXXX      OOOOOOOOO",
"OOOOOOO      XXXXXXXXX                XXXXXXXXXXX      OOOOOOOOO",
"OOOO       XXXXXXXXXXX  XX       XX   XXXXXXXXXXXXXXX       OOOO",
"OOOO       XXXXXXXXXXX  XX       XX   XXXXXXXXXXXXXXX       OOOO",
"OOOO       XXXXXXXXXXX  XX       XX   XXXXXXXXXXXXXXX       OOOO",
"OOOO     XXXXXXXXXXX      XXX  XX     XXXXXXXXXXXXXXXXX     OOOO",
"OOOO     XXXXXXXXXXX      XXX  XX     XXXXXXXXXXXXXXXXX     OOOO",
"OO     XXXXXXXXXXXXX    oooooXXoooo     XXXXXXXXXXXXXXXXX     OO",
"OO     XXXXXXXXXXXXX    oooooXXoooo     XXXXXXXXXXXXXXXXX     OO",
"OO     XXXXXXXXXXX      oooooXXoooo     XXXXXXXXXXXXXXXXX     OO",
"OO     XXXXXXXXXXX      oooooXXoooo     XXXXXXXXXXXXXXXXX     OO",
"OO     XXXXXXXXXXX  oo                    XXXXXXXXXXXXX         ",
"OO     XXXXXXXXXXX  oo                    XXXXXXXXXXXXX         ",
"         XXXX           oooooXXXX  ooooo           XXXX         ",
"         XXXX           oooooXXXX  ooooo           XXXX         ",
"             OO     ooooooXXXXXoo  ooooo  OOOOOOOOO             ",
"             OO     ooooooXXXXXoo  ooooo  OOOOOOOOO             ",
"           OOOOOOO  ooooXXoooooooXX       OOOOOOOOOOO           ",
"           OOOOOOO  ooooXXoooooooXX       OOOOOOOOOOO           ",
"OO           OOOOO  XXXXoooooooXXoooooXX  OOOOOOOOO           OO",
"OO           OOOOO  XXXXoooooooXXoooooXX  OOOOOOOOO           OO",
"OO           OOOOO  XXXXoooooooXXoooooXX  OOOOOOOOO           OO",
"OOOOOOO      OOOOOOO    oooooXXXXoo     OOOOOOOOOOO      OOOOOOO",
"OOOOOOO      OOOOOOO    oooooXXXXoo     OOOOOOOOOOO      OOOOOOO",
"OOOOOOOOOOOOOOOOOOOOOO                OOOOOOOOOOOOOOOOOOOOOOOOOO",
"OOOOOOOOOOOOOOOOOOOOOO                OOOOOOOOOOOOOOOOOOOOOOOOOO",
"OOOOOOOOOOOOOOOOOOOOOO       OOOOOOOOOOOOOOOOOOOOOOOOOOOOOOOOOOO",
"OOOOOOOOOOOOOOOOOOOOOO       OOOOOOOOOOOOOOOOOOOOOOOOOOOOOOOOOOO"
};
