/* XPM */
static char *result[] = {
/* columns rows colors chars-per-pixel */
"64 64 5 1 ",
"  c #363636",
". c red",
"X c #888888",
"o c gray77",
"O c None",
/* pixels */
"OOOOOOOOOOOOOOOOOOOOOOOO                    OOOOOOOOOOOOOOOOOOOO",
"OOOOOOOOOOOOOOOOOOOOOOOO                    OOOOOOOOOOOOOOOOOOOO",
"OOOOOOOOOOOOOOOOOOOO                             OOOOOOOOOOOOOOO",
"OOOOOOOOOOOOOOOOOOOO                             OOOOOOOOOOOOOOO",
"OOOOOOOOOOOOOOOOOO                                 OOOOOOOOOOOOO",
"OOOOOOOOOOOOOOOOOO                                 OOOOOOOOOOOOO",
"OOOOOOOOOOOOOOOOOO                                 OOOOOOOOOOOOO",
"OOOOOOOOOOOOOOOOOO                                 OOOOOOOOOOOOO",
"OOOOOOOOOOOOOOOOOO                                 OOOOOOOOOOOOO",
"OOOOOOOOOOOOOOO                                      OOOOOOOOOOO",
"OOOOOOOOOOOOOOO                                      OOOOOOOOOOO",
"OOOOOOOOOOOOO                                        OOOOOOOOOOO",
"OOOOOOOOOOOOO                                        OOOOOOOOOOO",
"OOOOOOOOOOOOO                                          OOOOOOOOO",
"OOOOOOOOOOOOO                                          OOOOOOOOO",
"OOOOOOOOOOOOO           XX         XXX                 OOOOOOOOO",
"OOOOOOOOOOOOO           XX         XXX                 OOOOOOOOO",
"OOOOOOOOOOOOO                      oooXX               OOOOOOOOO",
"OOOOOOOOOOOOO                      oooXX               OOOOOOOOO",
"OOOOOOOOOOOOO       XXooooooo      ooo  ooooooXXX      OOOOOOOOO",
"OOOOOOOOOOOOO       XXooooooo      ooo  ooooooXXX      OOOOOOOOO",
"OOOOOOOOOOOOO       ooooooooooo       ooooooooooo      OOOOOOOOO",
"OOOOOOOOOOOOO       ooooooooooo       ooooooooooo      OOOOOOOOO",
"OOOOOOOOOOO       XXooooXX...XX  XX   XX..XXoooooXX    OOOOOOOOO",
"OOOOOOOOOOO       XXooooXX...XX  XX   XX..XXoooooXX    OOOOOOOOO",
"OOOOOOOOOOO       XXooooXX...XX  XX   XX..XXoooooXX    OOOOOOOOO",
"OOOOOOOOOOO       XXooXX.....oo       oo....XXoooXX    OOOOOOOOO",
"OOOOOOOOOOO       XXooXX.....oo       oo....XXoooXX    OOOOOOOOO",
"OOOOOOOOOOO       XXoooooo...oo  oo   oo..oooooooXX    OOOOOOOOO",
"OOOOOOOOOOO       XXoooooo...oo  oo   oo..oooooooXX    OOOOOOOOO",
"OOOOOOOOOOO         XXooooooo  ooooooo  ooooooXXX        OOOOOOO",
"OOOOOOOOOOO         XXooooooo  ooooooo  ooooooXXX        OOOOOOO",
"OOOOOOOOOOO                  ooooooooooo                 OOOOOOO",
"OOOOOOOOOOO                  ooooooooooo                 OOOOOOO",
"OOOOOOOOO           XX    oooooooooooooooo    XXX        OOOOOOO",
"OOOOOOOOO           XX    oooooooooooooooo    XXX        OOOOOOO",
"OOOOOOOOO         XXXXXXXX                XXXXXXXXX      OOOOOOO",
"OOOOOOOOO         XXXXXXXX                XXXXXXXXX      OOOOOOO",
"OOOO       XXXXXXXXXXXXXXX   XX       XX  XXXXXXXXXXX       OOOO",
"OOOO       XXXXXXXXXXXXXXX   XX       XX  XXXXXXXXXXX       OOOO",
"OOOO       XXXXXXXXXXXXXXX   XX       XX  XXXXXXXXXXX       OOOO",
"OOOO     XXXXXXXXXXXXXXXXX     XX  XXX      XXXXXXXXXXX     OOOO",
"OOOO     XXXXXXXXXXXXXXXXX     XX  XXX      XXXXXXXXXXX     OOOO",
"OO     XXXXXXXXXXXXXXXXX     ooooXXXXXoo    XXXXXXXXXXXXX     OO",
"OO     XXXXXXXXXXXXXXXXX     ooooXXXXXoo    XXXXXXXXXXXXX     OO",
"OO     XXXXXXXXXXXXXXXXX     ooooXXooooo      XXXXXXXXXXX     OO",
"OO     XXXXXXXXXXXXXXXXX     ooooXXooooo      XXXXXXXXXXX     OO",
"         XXXXXXXXXXXXX                    oo  XXXXXXXXXXX     OO",
"         XXXXXXXXXXXXX                    oo  XXXXXXXXXXX     OO",
"         XXXX           ooooo  XXXXXXX             XXXX         ",
"         XXXX           ooooo  XXXXXXX             XXXX         ",
"             OOOOOOO    ooooo  ooooXXXooXX    OOOOO             ",
"             OOOOOOO    ooooo  ooooXXXooXX    OOOOO             ",
"           OOOOOOOOOOO       ooooXXXXXooooXX  OOOOOOO           ",
"           OOOOOOOOOOO       ooooXXXXXooooXX  OOOOOOO           ",
"OO           OOOOOOOOO  oooooooooXXoooooooXX  OOOOO           OO",
"OO           OOOOOOOOO  oooooooooXXoooooooXX  OOOOO           OO",
"OO           OOOOOOOOO  oooooooooXXoooooooXX  OOOOO           OO",
"OOOOOOO      OOOOOOOOOOO     ooXXooooooo    OOOOOOO      OOOOOOO",
"OOOOOOO      OOOOOOOOOOO     ooXXooooooo    OOOOOOO      OOOOOOO",
"OOOOOOOOOOOOOOOOOOOOOOOOOOOOO             OOOOOOOOOOOOOOOOOOOOOO",
"OOOOOOOOOOOOOOOOOOOOOOOOOOOOO             OOOOOOOOOOOOOOOOOOOOOO",
"OOOOOOOOOOOOOOOOOOOOOOOOOOOOOOOOOOO       OOOOOOOOOOOOOOOOOOOOOO",
"OOOOOOOOOOOOOOOOOOOOOOOOOOOOOOOOOOO       OOOOOOOOOOOOOOOOOOOOOO"
};
