/* XPM */
static char *result[] = {
/* columns rows colors chars-per-pixel */
"64 64 5 1 ",
"  c #363636",
". c red",
"X c #888888",
"o c gray77",
"O c None",
/* pixels */
"OOOOOOOOOOOOOOOOOOOOOO                    OOOOOOOOOOOOOOOOOOOOOO",
"OOOOOOOOOOOOOOOOOOOOOO                    OOOOOOOOOOOOOOOOOOOOOO",
"OOOOOOOOOOOOOOOOOO                            OOOOOOOOOOOOOOOOOO",
"OOOOOOOOOOOOOOOOOO                            OOOOOOOOOOOOOOOOOO",
"OOOOOOOOOOOOOOO                                  OOOOOOOOOOOOOOO",
"OOOOOOOOOOOOOOO                                  OOOOOOOOOOOOOOO",
"OOOOOOOOOOOOOOO                                  OOOOOOOOOOOOOOO",
"OOOOOOOOOOOOOOO                                  OOOOOOOOOOOOOOO",
"OOOOOOOOOOOOOOO                                  OOOOOOOOOOOOOOO",
"OOOOOOOOOOOOO                                      OOOOOOOOOOOOO",
"OOOOOOOOOOOOO                                      OOOOOOOOOOOOO",
"OOOOOOOOOOOOO                                      OOOOOOOOOOOOO",
"OOOOOOOOOOOOO                                      OOOOOOOOOOOOO",
"OOOOOOOOOOO                                          OOOOOOOOOOO",
"OOOOOOOOOOO                                          OOOOOOOOOOO",
"OOOOOOOOOOO           XX         XX                  OOOOOOOOOOO",
"OOOOOOOOOOO           XX         XX                  OOOOOOOOOOO",
"OOOOOOOOOOO                      ooXXX               OOOOOOOOOOO",
"OOOOOOOOOOO                      ooXXX               OOOOOOOOOOO",
"OOOOOOOOOOO       XXoooooo       oo   ooooooXX       OOOOOOOOOOO",
"OOOOOOOOOOO       XXoooooo       oo   ooooooXX       OOOOOOOOOOO",
"OOOOOOOOOOO       ooooooooooo      ooooooooooo       OOOOOOOOOOO",
"OOOOOOOOOOO       ooooooooooo      ooooooooooo       OOOOOOOOOOO",
"OOOOOOOOOOO    XXXooooXX..XXX  XX  XXX..XXooooXXX    OOOOOOOOOOO",
"OOOOOOOOOOO    XXXooooXX..XXX  XX  XXX..XXooooXXX    OOOOOOOOOOO",
"OOOOOOOOOOO    XXXooooXX..XXX  XX  XXX..XXooooXXX    OOOOOOOOOOO",
"OOOOOOOOOOO    XXXooXX....ooo      ooo....XXooXXX    OOOOOOOOOOO",
"OOOOOOOOOOO    XXXooXX....ooo      ooo....XXooXXX    OOOOOOOOOOO",
"OOOOOOOOOOO    XXXoooooo..ooo  oo  ooo..ooooooXXX    OOOOOOOOOOO",
"OOOOOOOOOOO    XXXoooooo..ooo  oo  ooo..ooooooXXX    OOOOOOOOOOO",
"OOOOOOOOO         XXoooooo   oooooo   ooooooXX         OOOOOOOOO",
"OOOOOOOOO         XXoooooo   oooooo   ooooooXX         OOOOOOOOO",
"OOOOOOOOO                 oooooooooooo                 OOOOOOOOO",
"OOOOOOOOO                 oooooooooooo                 OOOOOOOOO",
"OOOOOOOOO         XX    oooooooooooooooo    XX         OOOOOOOOO",
"OOOOOOOOO         XX    oooooooooooooooo    XX         OOOOOOOOO",
"OOOOOOO        XXXXXXXXX                XXXXXXXXX        OOOOOOO",
"OOOOOOO        XXXXXXXXX                XXXXXXXXX        OOOOOOO",
"OOOO       XXXXXXXXXXXXX  XXX      XXX  XXXXXXXXXXXXX       OOOO",
"OOOO       XXXXXXXXXXXXX  XXX      XXX  XXXXXXXXXXXXX       OOOO",
"OOOO       XXXXXXXXXXXXX  XXX      XXX  XXXXXXXXXXXXX       OOOO",
"OOOO     XXXXXXXXXXXXX       XX  XX       XXXXXXXXXXXXX     OOOO",
"OOOO     XXXXXXXXXXXXX       XX  XX       XXXXXXXXXXXXX     OOOO",
"OO     XXXXXXXXXXXXXXX    oooooXXooooo    XXXXXXXXXXXXXXX     OO",
"OO     XXXXXXXXXXXXXXX    oooooXXooooo    XXXXXXXXXXXXXXX     OO",
"OO     XXXXXXXXXXXXX      oooXXXXooooo      XXXXXXXXXXXXX     OO",
"OO     XXXXXXXXXXXXX      oooXXXXooooo      XXXXXXXXXXXXX     OO",
"       XXXXXXXXXXX  oooo                oooo  XXXXXXXXXXX       ",
"       XXXXXXXXXXX  oooo                oooo  XXXXXXXXXXX       ",
"         XXXX       oooo  XXXXXXXXX     oooo       XXXX         ",
"         XXXX       oooo  XXXXXXXXX     oooo       XXXX         ",
"             OOOOO      XXoooooooXXoooXX      OOOOO             ",
"             OOOOO      XXoooooooXXoooXX      OOOOO             ",
"           OOOOOOOOO  XXoooooooXXoooooooXX  OOOOOOOOO           ",
"           OOOOOOOOO  XXoooooooXXoooooooXX  OOOOOOOOO           ",
"OO           OOOOOOO  oooooooXXoooooooXXoo  OOOOOOO           OO",
"OO           OOOOOOO  oooooooXXoooooooXXoo  OOOOOOO           OO",
"OO           OOOOOOO  oooooooXXoooooooXXoo  OOOOOOO           OO",
"OOOOOOO      OOOOOOOOO    XXXooooooXXX    OOOOOOOOO      OOOOOOO",
"OOOOOOO      OOOOOOOOO    XXXooooooXXX    OOOOOOOOO      OOOOOOO",
"OOOOOOOOOOOOOOOOOOOOOO                    OOOOOOOOOOOOOOOOOOOOOO",
"OOOOOOOOOOOOOOOOOOOOOO                    OOOOOOOOOOOOOOOOOOOOOO",
"OOOOOOOOOOOOOOOOOOOOOOOO     OOOOOO     OOOOOOOOOOOOOOOOOOOOOOOO",
"OOOOOOOOOOOOOOOOOOOOOOOO     OOOOOO     OOOOOOOOOOOOOOOOOOOOOOOO"
};
