/* XPM */
static char *c4557ac8994f47c0becb616c2084be3876OnwliMMWU47HRZ[] = {
/* columns rows colors chars-per-pixel */
"64 64 5 1 ",
"  c None",
". c #363636",
"X c red",
"o c #888888",
"O c gray77",
/* pixels */
"                      ................                          ",
"                      ................                          ",
"                      ................                          ",
"               ...........................                      ",
"               ...........................                      ",
"             ...............................                    ",
"             ...............................                    ",
"           ...................................                  ",
"           ...................................                  ",
"           ...................................                  ",
"           ...................................                  ",
"        .........................................               ",
"        .........................................               ",
"        .........................................               ",
"        .........................................               ",
"        .........................................               ",
"        ..........oo.............................               ",
"        ..........oo.............................               ",
"           ....oooOO.............................               ",
"           ....oooOO.............................               ",
"           ....OOO..OOOO...........................             ",
"           ....OOO..OOOO...........................             ",
"           ....oooOOOOOOooooo......................             ",
"           ....oooOOOOOOooooo......................             ",
"             oo.....OOOOOOooo......................             ",
"             oo.....OOOOOOooo......................             ",
"           ....ooo..XXOOOOooooo....................             ",
"           ....ooo..XXOOOOooooo....................             ",
"           ..OOooo..OOOOOOoooOOoo..................             ",
"           ..OOooo..OOOOOOoooOOoo..................             ",
"           ..OOooo..OOOOOOoooOOoo..................             ",
"           ..OOOOOooOOOOooOOOOOoo..................             ",
"           ..OOOOOooOOOOooOOOOOoo..................             ",
"             ..OOOOO....OOOOOOOoo....................           ",
"             ..OOOOO....OOOOOOOoo....................           ",
"             .....OOOOOOOOOOO........................           ",
"             .....OOOOOOOOOOO........................           ",
"                  ...................................           ",
"                  ...................................           ",
"                    ....oo.....oo....................           ",
"                    ....oo.....oo....................           ",
"                  ..oooo..OOOOOoo.......................        ",
"                  ..oooo..OOOOOoo.......................        ",
"                  ......ooOOOoo.........................        ",
"                  ......ooOOOoo.........................        ",
"                  ......ooOOOoo.........................        ",
"                  ..oo.......oo.........................        ",
"                  ..oo.......oo.........................        ",
"               ...oo..OOOO.....OO.......................        ",
"               ...oo..OOOO.....OO.......................        ",
"               ...OO..OOOO...ooOOoo..................           ",
"               ...OO..OOOO...ooOOoo..................           ",
"        .....  ...ooOO.......ooOOOOooooo...........             ",
"        .....  ...ooOO.......ooOOOOooooo...........             ",
"        ............OOOOooOOOOOooooOOO........                  ",
"        ............OOOOooOOOOOooooOOO........                  ",
"           ...........ooOOoooOOOOoo.........                    ",
"           ...........ooOOoooOOOOoo.........                    ",
"             .............................                      ",
"             .............................                      ",
"               .....               .....                        ",
"               .....               .....                        ",
"               .....               .....                        ",
"                                                                "
};
