/* XPM */
static char *_e8b885cb0834a6ecb6070db1218856eLOYqox3vriILEHSH[] = {
/* columns rows colors chars-per-pixel */
"64 64 5 1 ",
"  c None",
". c #363636",
"X c red",
"o c #888888",
"O c gray77",
/* pixels */
"                       ...............                          ",
"                       ...............                          ",
"                ...........................                     ",
"                ...........................                     ",
"              ...............................                   ",
"              ...............................                   ",
"            ...................................                 ",
"            ...................................                 ",
"            ...................................                 ",
"            ...................................                 ",
"            ...................................                 ",
"         ........................................               ",
"         ........................................               ",
"         ........................................               ",
"         ........................................               ",
"         .........ooo............................               ",
"         .........ooo............................               ",
"            ....ooOOO............................               ",
"            ....ooOOO............................               ",
"            ....OO...OOOO........................               ",
"            ....OO...OOOO........................               ",
"            ....ooOOOOOOOoooo....................               ",
"            ....ooOOOOOOOoooo....................               ",
"              oo...XXOOOOOOoo....................               ",
"              oo...XXOOOOOOoo....................               ",
"              oo...XXOOOOOOoo....................               ",
"            ....oo.XXXXOOOOooooo.................               ",
"            ....oo.XXXXOOOOooooo.................               ",
"            ..OOoo...OOOOOOooOOOoo...............               ",
"            ..OOoo...OOOOOOooOOOoo...............               ",
"            ..OOOOoooOOOOooOOOOOoo.................             ",
"            ..OOOOoooOOOOooOOOOOoo.................             ",
"              ..OOOOO....OOOOOOOoo.................             ",
"              ..OOOOO....OOOOOOOoo.................             ",
"              ....OOOOOOOOOOO......................             ",
"              ....OOOOOOOOOOO......................             ",
"                  ..............oo.................             ",
"                  ..............oo.................             ",
"                     ....oo.....oo.................             ",
"                     ....oo.....oo.................             ",
"                     ....oo.....oo.................             ",
"                  ...oooo..OOooo......................          ",
"                  ...oooo..OOooo......................          ",
"                  .....OO..OOOOO......................          ",
"                  .....OO..OOOOO......................          ",
"                  ...oo....oo.........................          ",
"                  ...oo....oo.........................          ",
"                ..oooOOOOoo..OOOOO....................          ",
"                ..oooOOOOoo..OOOOO....................          ",
"                ..oooooOOoo..OOOOO....................          ",
"                ..oooooOOoo..OOOOO....................          ",
"              ..ooOOOooOOOO.........oo................          ",
"              ..ooOOOooOOOO.........oo................          ",
"              ..OOOOOooOOOOooOOOOOOOoo.............             ",
"              ..OOOOOooOOOOooOOOOOOOoo.............             ",
"              ....OOOOOooOOOOoooooOOOO...........               ",
"              ....OOOOOooOOOOoooooOOOO...........               ",
"              ....OOOOOooOOOOoooooOOOO...........               ",
"                  .....ooooOOOOOoooo.........                   ",
"                  .....ooooOOOOOoooo.........                   ",
"                     ...............                            ",
"                     ...............                            ",
"                  ..............                                ",
"                  ..............                                "
};
