/* XPM */
static char *_4f1fdc38d944034f8b69dbc8e6e5a8ayovIdMagpvv9uuuY[] = {
/* columns rows colors chars-per-pixel */
"64 64 5 1 ",
"  c None",
". c #363636",
"X c red",
"o c #888888",
"O c gray77",
/* pixels */
"                      ................                          ",
"                      ................                          ",
"                      ................                          ",
"               ...........................                      ",
"               ...........................                      ",
"             ...............................                    ",
"             ...............................                    ",
"           ...................................                  ",
"           ...................................                  ",
"           ...................................                  ",
"           ...................................                  ",
"        .........................................               ",
"        .........................................               ",
"        .........................................               ",
"        .........................................               ",
"        .........................................               ",
"        ..........oo.............................               ",
"        ..........oo.............................               ",
"           ....oooOO.............................               ",
"           ....oooOO.............................               ",
"           ....OOO..OOOO...........................             ",
"           ....OOO..OOOO...........................             ",
"           ....oooOOOOOOooooo......................             ",
"           ....oooOOOOOOooooo......................             ",
"             oo.....OOOOOOooo......................             ",
"             oo.....OOOOOOooo......................             ",
"           ....ooo.XXXOOOOooooo....................             ",
"           ....ooo.XXXOOOOooooo....................             ",
"           ..OOooo.XOOOOOOoooOOoo..................             ",
"           ..OOooo..OOOOOOoooOOoo..................             ",
"           ..OOooo..OOOOOOoooOOoo..................             ",
"           ..OOOOOooOOOOooOOOOOoo..................             ",
"           ..OOOOOooOOOOooOOOOOoo..................             ",
"             ..OOOOO....OOOOOOOoo....................           ",
"             ..OOOOO....OOOOOOOoo....................           ",
"             .....OOOOOOOOOOO........................           ",
"             .....OOOOOOOOOOO........................           ",
"                  .............oo....................           ",
"                  .............oo....................           ",
"                    ....oo.....oo....................           ",
"                    ....oo.....oo....................           ",
"                  ..oooo..OOOOO.........................        ",
"                  ..oooo..OOOOO.........................        ",
"                  ....OO..oooOOoo.......................        ",
"                  ....OO..oooOOoo.......................        ",
"                  ....OO..oooOOoo.......................        ",
"                  ..oo.........OOOO.....................        ",
"                  ..oo.........OOOO.....................        ",
"               ...ooooOOooOOO..OOOO.....................        ",
"               ...ooooOOooOOO..OOOO.....................        ",
"               ...OOooOOooOOO........................           ",
"               ...OOooOOooOOO........................           ",
"        .....  ...ooooOOOOoooOOOOooOOOoo...........             ",
"        .....  ...ooooOOOOoooOOOOooOOOoo...........             ",
"        ............ooOOOOoooOOOOooooo........                  ",
"        ............ooOOOOoooOOOOooooo........                  ",
"           ...........ooOOOOOooOOOO.........                    ",
"           ...........ooOOOOOooOOOO.........                    ",
"             .............................                      ",
"             .............................                      ",
"               .....               .....                        ",
"               .....               .....                        ",
"               .....               .....                        ",
"                                                                "
};
