/* XPM */
static char *_587034ad75e4f9da232422b1ca999631VyCxzGJvJsqmuyo[] = {
/* columns rows colors chars-per-pixel */
"64 64 5 1 ",
"  c None",
". c #363636",
"X c red",
"o c #888888",
"O c gray77",
/* pixels */
"                          ................                      ",
"                          ................                      ",
"                          ................                      ",
"                      ...........................               ",
"                      ...........................               ",
"                    ...............................             ",
"                    ...............................             ",
"                  ...................................           ",
"                  ...................................           ",
"                  ...................................           ",
"                  ...................................           ",
"               .........................................        ",
"               .........................................        ",
"               .........................................        ",
"               .........................................        ",
"               .........................................        ",
"               .............................oo..........        ",
"               .............................oo..........        ",
"               .............................OOooo....           ",
"               .............................OOooo....           ",
"             ...........................OOOO..OOO....           ",
"             ...........................OOOO..OOO....           ",
"             ......................oooooOOOOOOooo....           ",
"             ......................oooooOOOOOOooo....           ",
"             ......................oooOOOOOO.....oo             ",
"             ......................oooOOOOOO.....oo             ",
"             ....................oooooOOOOXXX.ooo....           ",
"             ....................oooooOOOOXXX.ooo....           ",
"             ..................ooOOoooOOOOOOX.oooOO..           ",
"             ..................ooOOoooOOOOOOX.oooOO..           ",
"             ..................ooOOoooOOOOOO..oooOO..           ",
"             ..................ooOOOOOooOOOOooOOOOO..           ",
"             ..................ooOOOOOooOOOOooOOOOO..           ",
"           ....................ooOOOOOOO....OOOOO..             ",
"           ....................ooOOOOOOO....OOOOO..             ",
"           ........................OOOOOOOOOOO.....             ",
"           ........................OOOOOOOOOOO.....             ",
"           ...................................                  ",
"           ...................................                  ",
"           ....................oo.....oo....                    ",
"           ....................oo.....oo....                    ",
"        .......................ooOOOOO..oooo..                  ",
"        .......................ooOOOOO..oooo..                  ",
"        .........................ooOOOoo......                  ",
"        .........................ooOOOoo......                  ",
"        .........................ooOOOoo......                  ",
"        .........................oo.......oo..                  ",
"        .........................oo.......oo..                  ",
"        .......................OO.....OOOO..oo...               ",
"        .......................OO.....OOOO..oo...               ",
"           ..................ooOOoo...OOOO..OO...               ",
"           ..................ooOOoo...OOOO..OO...               ",
"             ...........oooooOOOOoo.......OOoo...  .....        ",
"             ...........oooooOOOOoo.......OOoo...  .....        ",
"                  ........OOOooooOOOOOooOOOO............        ",
"                  ........OOOooooOOOOOooOOOO............        ",
"                    .........ooOOOOoooOOoo...........           ",
"                    .........ooOOOOoooOOoo...........           ",
"                      .............................             ",
"                      .............................             ",
"                        .....               .....               ",
"                        .....               .....               ",
"                        .....               .....               ",
"                                                                "
};
