/* XPM */
static char *_4ee41812dea407ed6a40bd2041c02488wh72cwgr2v3wf7q[] = {
/* columns rows colors chars-per-pixel */
"64 64 5 1 ",
"  c None",
". c #363636",
"X c red",
"o c #888888",
"O c gray77",
/* pixels */
"                         ...............                        ",
"                         ...............                        ",
"                     ..........................                 ",
"                     ..........................                 ",
"                  ...............................               ",
"                  ...............................               ",
"                ...................................             ",
"                ...................................             ",
"                ...................................             ",
"                ...................................             ",
"                ...................................             ",
"              ........................................          ",
"              ........................................          ",
"              ........................................          ",
"              ........................................          ",
"              .............................oo.........          ",
"              .............................oo.........          ",
"              .............................OOoo....             ",
"              .............................OOoo....             ",
"              ........................OOOOO..OO....             ",
"              ........................OOOOO..OO....             ",
"              ....................ooooOOOOOOOoo....             ",
"              ....................ooooOOOOOOOoo....             ",
"              ....................ooOOOOOOO....oo               ",
"              ....................ooOOOOOOO....oo               ",
"              ....................ooOOOOOOO....oo               ",
"              ..................ooooOOOOXXX..oo....             ",
"              ..................ooooOOOOXXX..oo....             ",
"              ...............oooOOooOOOOOOO..ooOO..             ",
"              ...............oooOOooOOOOOOO..ooOO..             ",
"            .................oooOOOOooOOOOOooOOOO..             ",
"            .................oooOOOOooOOOOOooOOOO..             ",
"            .................oooOOOOOO.....OOOO..               ",
"            .................oooOOOOOO.....OOOO..               ",
"            ......................OOOOOOOOOOO....               ",
"            ......................OOOOOOOOOOO....               ",
"            .................ooo.............                   ",
"            .................ooo.............                   ",
"            .................ooo....oo.....                     ",
"            .................ooo....oo.....                     ",
"            .................ooo....oo.....                     ",
"         .......................ooOO..ooooo..                   ",
"         .......................ooOO..ooooo..                   ",
"         .......................OOOO..OO.....                   ",
"         .......................OOOO..OO.....                   ",
"         .........................oo....ooo..                   ",
"         .........................oo....ooo..                   ",
"         ....................OOOOO..ooOOOOOoo..                 ",
"         ....................OOOOO..ooOOOOOoo..                 ",
"         ....................OOOOO..ooOOooooo..                 ",
"         ....................OOOOO..ooOOooooo..                 ",
"         ................oo.........OOOOoooOOoo..               ",
"         ................oo.........OOOOoooOOoo..               ",
"            .............ooOOOOOOOooOOOOoooOOOO..               ",
"            .............ooOOOOOOOooOOOOoooOOOO..               ",
"              ...........OOOOoooooOOOOooOOOOO....               ",
"              ...........OOOOoooooOOOOooOOOOO....               ",
"              ...........OOOOoooooOOOOooOOOOO....               ",
"                  .........oooooOOOOoooo.....                   ",
"                  .........oooooOOOOoooo.....                   ",
"                           ................                     ",
"                           ................                     ",
"                                .............                   ",
"                                .............                   "
};
