/* XPM */
static char *_f34edfe79f149f4dba496f63905fa2bcTYxZAdrywMxac8f[] = {
/* columns rows colors chars-per-pixel */
"64 64 5 1 ",
"  c None",
". c #363636",
"X c red",
"o c #888888",
"O c gray77",
/* pixels */
"                          ................                      ",
"                          ................                      ",
"                          ................                      ",
"                      ...........................               ",
"                      ...........................               ",
"                    ...............................             ",
"                    ...............................             ",
"                  ...................................           ",
"                  ...................................           ",
"                  ...................................           ",
"                  ...................................           ",
"               .........................................        ",
"               .........................................        ",
"               .........................................        ",
"               .........................................        ",
"               .........................................        ",
"               .............................oo..........        ",
"               .............................oo..........        ",
"               .............................OOooo....           ",
"               .............................OOooo....           ",
"             ...........................OOOO..OOO....           ",
"             ...........................OOOO..OOO....           ",
"             ......................oooooOOOOOOooo....           ",
"             ......................oooooOOOOOOooo....           ",
"             ......................oooOOOOOO.....oo             ",
"             ......................oooOOOOOO.....oo             ",
"             ....................oooooOOOOXXX.ooo....           ",
"             ....................oooooOOOOXXX.ooo....           ",
"             ..................ooOOoooOOOOOOX.oooOO..           ",
"             ..................ooOOoooOOOOOO..oooOO..           ",
"             ..................ooOOoooOOOOOO..oooOO..           ",
"             ..................ooOOOOOooOOOOooOOOOO..           ",
"             ..................ooOOOOOooOOOOooOOOOO..           ",
"           ....................ooOOOOOOO....OOOOO..             ",
"           ....................ooOOOOOOO....OOOOO..             ",
"           ........................OOOOOOOOOOO.....             ",
"           ........................OOOOOOOOOOO.....             ",
"           ....................oo.............                  ",
"           ....................oo.............                  ",
"           ....................oo.....oo....                    ",
"           ....................oo.....oo....                    ",
"        .........................OOOOO..oooo..                  ",
"        .........................OOOOO..oooo..                  ",
"        .......................ooOOooo..OO....                  ",
"        .......................ooOOooo..OO....                  ",
"        .......................ooOOooo..OO....                  ",
"        .....................OOOO.........oo..                  ",
"        .....................OOOO.........oo..                  ",
"        .....................OOOO..OOOooOOoooo...               ",
"        .....................OOOO..OOOooOOoooo...               ",
"           ........................OOOooOOooOO...               ",
"           ........................OOOooOOooOO...               ",
"             ...........ooOOOooOOOOoooOOOOoooo...  .....        ",
"             ...........ooOOOooOOOOoooOOOOoooo...  .....        ",
"                  ........oooooOOOOoooOOOOoo............        ",
"                  ........oooooOOOOoooOOOOoo............        ",
"                    .........OOOOooOOOOOoo...........           ",
"                    .........OOOOooOOOOOoo...........           ",
"                      .............................             ",
"                      .............................             ",
"                        .....               .....               ",
"                        .....               .....               ",
"                        .....               .....               ",
"                                                                "
};
